<svg xmlns="http://www.w3.org/2000/svg" width="400" height="400"><path d="M0 0 C88.44 0 176.88 0 268 0 C268 88.44 268 176.88 268 268 C179.56 268 91.12 268 0 268 C0 179.56 0 91.12 0 0 Z " fill="#FEFEFE" transform="translate(63,66)"></path><path d="M0 0 C4.36092665 2.95058442 7.2886402 6.39355351 8.375 11.67578125 C8.81549431 26.1119811 0.46935936 36.46062561 -8.828125 46.578125 C-16.13831961 54.29980673 -24.24098288 61.04231627 -32.50927734 67.70898438 C-34.42201356 69.26445827 -36.31891019 70.83815302 -38.21484375 72.4140625 C-39.29004272 73.30532837 -39.29004272 73.30532837 -40.38696289 74.21459961 C-41.86509394 75.4427634 -43.33954508 76.67536943 -44.81030273 77.91235352 C-48.00837984 80.57723884 -51.14104396 83.1340404 -54.7109375 85.28515625 C-63.31510276 90.64670699 -65.62667289 96.44996783 -67.984375 105.9296875 C-68.27876465 107.21166016 -68.27876465 107.21166016 -68.57910156 108.51953125 C-69.13395492 110.92420457 -69.76189996 113.29773 -70.40625 115.6796875 C-73.01093724 126.02023066 -73.53039702 136.2405762 -73.5390625 146.8671875 C-73.54172119 148.80815308 -73.54172119 148.80815308 -73.54443359 150.78833008 C-73.47147819 156.90175199 -73.29607603 162.30227364 -71.1640625 168.0546875 C-70.8546875 169.0034375 -70.5453125 169.9521875 -70.2265625 170.9296875 C-69.8759375 171.6309375 -69.5253125 172.3321875 -69.1640625 173.0546875 C-57.79978864 176.84277879 -47.44288785 172.82743723 -37.1640625 168.0546875 C-34.10523968 166.67146241 -31.04090365 165.30063606 -27.9765625 163.9296875 C-27.21674072 163.58736084 -26.45691895 163.24503418 -25.67407227 162.89233398 C-12.79413998 157.14139186 1.34810013 152.18272816 15.5703125 155.73828125 C23.08574501 158.86107303 28.87760833 163.69011337 32.2578125 171.15234375 C33.03880432 173.72222899 32.77107624 175.56098419 31.8359375 178.0546875 C30.1859375 178.3846875 28.5359375 178.7146875 26.8359375 179.0546875 C26.53300781 178.09046875 26.23007812 177.12625 25.91796875 176.1328125 C25.49565451 174.85648501 25.07242896 173.58045881 24.6484375 172.3046875 C24.24238281 171.05171875 23.83632813 169.79875 23.41796875 168.5078125 C21.43165009 164.17224289 19.0484856 162.16096155 14.8359375 160.0546875 C-8.91569506 157.9624516 -26.08491089 167.58335755 -46.48950195 178.74536133 C-53.59023978 182.22151441 -60.33522456 183.14799155 -68.1640625 182.0546875 C-74.08597128 179.2679069 -76.76189731 173.86598612 -79.1640625 168.0546875 C-79.5559375 167.2296875 -79.9478125 166.4046875 -80.3515625 165.5546875 C-86.28685321 147.29225456 -82.72956161 122.05786722 -77.1640625 104.0546875 C-77.8240625 104.0546875 -78.4840625 104.0546875 -79.1640625 104.0546875 C-79.1640625 104.7146875 -79.1640625 105.3746875 -79.1640625 106.0546875 C-80.5625 107.359375 -80.5625 107.359375 -82.5390625 108.9296875 C-99.76935411 123.69850888 -108.95784094 143.3822768 -114.1640625 165.0546875 C-115.4840625 165.0546875 -116.8040625 165.0546875 -118.1640625 165.0546875 C-123.55790726 155.73804655 -123.48185203 145.6757662 -123.4140625 135.1796875 C-123.42566406 133.39498047 -123.42566406 133.39498047 -123.4375 131.57421875 C-123.42067701 123.87769925 -122.68369816 116.59921121 -121.1640625 109.0546875 C-121.52161621 109.81120605 -121.87916992 110.56772461 -122.24755859 111.34716797 C-126.54502099 120.35640389 -131.69369287 128.71878841 -137.1640625 137.0546875 C-137.56641113 137.67166504 -137.96875977 138.28864258 -138.38330078 138.92431641 C-146.49039361 151.21957527 -157.48650483 166.125386 -172.16796875 170.67578125 C-177.34450769 171.65841193 -181.69573186 171.77500065 -186.4765625 169.4296875 C-190.45890771 165.91040569 -193.01242194 163.10183509 -193.4140625 157.6796875 C-193.3315625 156.8134375 -193.2490625 155.9471875 -193.1640625 155.0546875 C-190.80078125 155.2109375 -190.80078125 155.2109375 -188.1640625 156.0546875 C-186.87109375 158.5234375 -186.87109375 158.5234375 -185.9765625 161.5546875 C-185.41708633 163.40214924 -184.82165983 165.23983373 -184.1640625 167.0546875 C-179.9511404 169.16114855 -175.13496239 168.67574277 -170.734375 167.2890625 C-152.13348443 158.85031981 -140.92158154 138.85668239 -131.18164062 121.81640625 C-130.18441587 120.089925 -129.15109648 118.38445345 -128.1171875 116.6796875 C-121.65901669 105.86600615 -117.03264533 94.40248136 -112.45703125 82.6953125 C-109.42891404 75.01775889 -106.07676114 67.66943059 -102.1015625 60.4296875 C-101.50239014 59.32838501 -101.50239014 59.32838501 -100.89111328 58.20483398 C-97.67299306 52.50010358 -93.23470842 44.99803098 -87.1640625 42.0546875 C-80.83678977 42.38196023 -80.83678977 42.38196023 -78.1640625 45.0546875 C-76.87885247 51.48073767 -80.83733057 55.92036712 -84.1640625 61.0546875 C-102.79785457 90.11371931 -114.37715641 119.27343853 -115.1640625 154.0546875 C-114.5040625 154.0546875 -113.8440625 154.0546875 -113.1640625 154.0546875 C-113.03064453 152.56582031 -113.03064453 152.56582031 -112.89453125 151.046875 C-112.26048651 146.6450775 -110.52280123 143.09050716 -108.4765625 139.1796875 C-108.11208008 138.47279785 -107.74759766 137.7659082 -107.37207031 137.03759766 C-100.97789026 124.80879861 -92.47755713 112.52656819 -81.2265625 104.3046875 C-75.21238007 99.29105621 -74.37200936 91.59672039 -72.71582031 84.30761719 C-67.07362746 61.26949523 -55.30823802 35.63807247 -39.1640625 18.0546875 C-38.01164062 16.78238281 -38.01164062 16.78238281 -36.8359375 15.484375 C-28.02122306 6.19843368 -13.79862877 -6.02755986 0 0 Z " fill="#DE8A70" transform="translate(277.1640625,90.9453125)"></path><path d="M0 0 C2.44144965 7.47054354 0.29339028 14.19232131 -3 21 C-11.32236707 36.52441549 -26.65395355 49.03614456 -40.41259766 59.64233398 C-46.20163178 64.10872908 -51.81391473 68.78003602 -57.40307617 73.4934082 C-58.08861572 74.06534912 -58.77415527 74.63729004 -59.48046875 75.2265625 C-60.39155396 75.99347412 -60.39155396 75.99347412 -61.32104492 76.77587891 C-63 78 -63 78 -66 79 C-65.42788015 74.43501382 -64.20831492 70.84650526 -62.2265625 66.703125 C-61.94717331 66.11646561 -61.66778412 65.52980621 -61.37992859 64.92536926 C-60.47146121 63.02864124 -59.54983539 61.13879625 -58.625 59.25 C-58.31009613 58.60271942 -57.99519226 57.95543884 -57.67074585 57.2885437 C-34.33403232 9.44291918 -34.33403232 9.44291918 -13 -1 C-8.16520218 -2.46060814 -4.30982205 -2.8732147 0 0 Z " fill="#FDFCFB" transform="translate(282,99)"></path><path d="M0 0 C1.65 0 3.3 0 5 0 C5.67354499 1.43429001 6.33859701 2.87257057 7 4.3125 C7.556875 5.51326172 7.556875 5.51326172 8.125 6.73828125 C9 9 9 9 9 12 C9.66 12 10.32 12 11 12 C11.20496094 11.30132812 11.40992187 10.60265625 11.62109375 9.8828125 C11.89050781 8.97273438 12.15992187 8.06265625 12.4375 7.125 C12.70433594 6.22007812 12.97117187 5.31515625 13.24609375 4.3828125 C14 2 14 2 15 0 C16.65 0 18.3 0 20 0 C20 0.66 20 1.32 20 2 C19.34 2 18.68 2 18 2 C18 6.29 18 10.58 18 15 C18.66 15 19.32 15 20 15 C20 15.66 20 16.32 20 17 C18.02 17 16.04 17 14 17 C14 14.36 14 11.72 14 9 C13.01 11.31 12.02 13.62 11 16 C10.01 15.67 9.02 15.34 8 15 C6.3125 11.4375 6.3125 11.4375 5 8 C4.67 10.31 4.34 12.62 4 15 C4.66 15 5.32 15 6 15 C6 15.66 6 16.32 6 17 C4.02 17 2.04 17 0 17 C0 16.34 0 15.68 0 15 C0.66 15 1.32 15 2 15 C2 10.71 2 6.42 2 2 C1.34 2 0.68 2 0 2 C0 1.34 0 0.68 0 0 Z " fill="#E5A793" transform="translate(78,293)"></path><path d="M0 0 C0.69287109 0.00451172 1.38574219 0.00902344 2.09960938 0.01367188 C3.79561068 0.02536844 5.49156703 0.04330076 7.1875 0.0625 C7.1875 0.3925 7.1875 0.7225 7.1875 1.0625 C2.7325 1.5575 2.7325 1.5575 -1.8125 2.0625 C0.8275 2.3925 3.4675 2.7225 6.1875 3.0625 C6.1875 3.3925 6.1875 3.7225 6.1875 4.0625 C5.19234375 4.05347656 4.1971875 4.04445312 3.171875 4.03515625 C-9.1263631 4.20346204 -19.45612773 7.51818081 -30.8125 12.0625 C-31.8025 11.0725 -32.7925 10.0825 -33.8125 9.0625 C-30.61553742 7.8295251 -27.41782998 6.59856683 -24.21875 5.37109375 C-22.25857932 4.61804653 -20.29953498 3.86202158 -18.34375 3.09765625 C-12.05949735 0.6685509 -6.71479154 -0.08353329 0 0 Z " fill="#E09077" transform="translate(282.8125,245.9375)"></path><path d="M0 0 C0.99 0.33 1.98 0.66 3 1 C2.27167969 1.72445312 1.54335937 2.44890625 0.79296875 3.1953125 C-11.63720874 15.67764459 -21.40256692 28.11668559 -27 45 C-27.59709357 46.60681278 -28.20016264 48.21143441 -28.8125 49.8125 C-29.204375 50.864375 -29.59625 51.91625 -30 53 C-30.99 52.67 -31.98 52.34 -33 52 C-33 51.34 -33 50.68 -33 50 C-32.34 50 -31.68 50 -31 50 C-30.91105469 49.00742188 -30.82210937 48.01484375 -30.73046875 46.9921875 C-30.09642401 42.59039 -28.35873873 39.03581966 -26.3125 35.125 C-25.94801758 34.41811035 -25.58353516 33.7112207 -25.20800781 32.98291016 C-18.73358996 20.60065719 -10.0366643 9.72451923 0 0 Z " fill="#DF9077" transform="translate(195,195)"></path><path d="M0 0 C2.31 0 4.62 0 7 0 C7 0.66 7 1.32 7 2 C6.01 2 5.02 2 4 2 C4 3.98 4 5.96 4 8 C6.64 8 9.28 8 12 8 C12 6.02 12 4.04 12 2 C11.34 2 10.68 2 10 2 C10 1.34 10 0.68 10 0 C12.31 0 14.62 0 17 0 C17 0.66 17 1.32 17 2 C16.34 2 15.68 2 15 2 C15 6.29 15 10.58 15 15 C15.66 15 16.32 15 17 15 C17 15.66 17 16.32 17 17 C14.69 17 12.38 17 10 17 C10 16.34 10 15.68 10 15 C10.66 15 11.32 15 12 15 C12 13.02 12 11.04 12 9 C9.36 9 6.72 9 4 9 C4 10.98 4 12.96 4 15 C4.66 15 5.32 15 6 15 C6 15.66 6 16.32 6 17 C4.02 17 2.04 17 0 17 C0 16.34 0 15.68 0 15 C0.66 15 1.32 15 2 15 C2 10.71 2 6.42 2 2 C1.34 2 0.68 2 0 2 C0 1.34 0 0.68 0 0 Z " fill="#E5A490" transform="translate(178,293)"></path><path d="M0 0 C4.29 0 8.58 0 13 0 C13 1.65 13 3.3 13 5 C12.34 5 11.68 5 11 5 C11 4.01 11 3.02 11 2 C9.02 2 7.04 2 5 2 C5 3.98 5 5.96 5 8 C6.32 8 7.64 8 9 8 C9.33 7.34 9.66 6.68 10 6 C10 7.65 10 9.3 10 11 C9.67 10.34 9.34 9.68 9 9 C7.68 9 6.36 9 5 9 C5 10.98 5 12.96 5 15 C6.98 15 8.96 15 11 15 C11 14.01 11 13.02 11 12 C11.66 12 12.32 12 13 12 C13 13.65 13 15.3 13 17 C8.71 17 4.42 17 0 17 C0 16.34 0 15.68 0 15 C0.66 15 1.32 15 2 15 C2 10.71 2 6.42 2 2 C1.34 2 0.68 2 0 2 C0 1.34 0 0.68 0 0 Z " fill="#EEC5B8" transform="translate(206,293)"></path><path d="M0 0 C3.96 0 7.92 0 12 0 C12 1.65 12 3.3 12 5 C11.34 5 10.68 5 10 5 C10 4.01 10 3.02 10 2 C8.02 2 6.04 2 4 2 C4 3.98 4 5.96 4 8 C5.32 8 6.64 8 8 8 C8.33 7.34 8.66 6.68 9 6 C9 7.65 9 9.3 9 11 C8.67 10.34 8.34 9.68 8 9 C6.68 9 5.36 9 4 9 C4 10.98 4 12.96 4 15 C6.31 15 8.62 15 11 15 C11.33 14.34 11.66 13.68 12 13 C12 14.32 12 15.64 12 17 C8.04 17 4.08 17 0 17 C0 16.34 0 15.68 0 15 C0.66 15 1.32 15 2 15 C2 10.71 2 6.42 2 2 C1.34 2 0.68 2 0 2 C0 1.34 0 0.68 0 0 Z " fill="#E29B84" transform="translate(278,293)"></path><path d="M0 0 C0.66 0.33 1.32 0.66 2 1 C2 2.32 2 3.64 2 5 C1.34 5 0.68 5 0 5 C0 4.01 0 3.02 0 2 C-2.31 2.66 -4.62 3.32 -7 4 C-7 6.97 -7 9.94 -7 13 C-4.69 13.66 -2.38 14.32 0 15 C0 14.01 0 13.02 0 12 C0.99 12 1.98 12 3 12 C3 13.32 3 14.64 3 16 C-0.13871188 17.56935594 -2.53855822 17.35201103 -6 17 C-9.69186542 14.40783917 -10.82883761 12.95850936 -11.625 8.5 C-10.42891819 1.80194184 -6.66966629 -0.88928884 0 0 Z " fill="#E19981" transform="translate(164,293)"></path><path d="M0 0 C2.31 0 4.62 0 7 0 C7 0.66 7 1.32 7 2 C6.34 2 5.68 2 5 2 C5 6.29 5 10.58 5 15 C9.86132495 14.50847518 9.86132495 14.50847518 12 12 C12 13.65 12 15.3 12 17 C8.04 17 4.08 17 0 17 C0 16.34 0 15.68 0 15 C0.66 15 1.32 15 2 15 C2 10.71 2 6.42 2 2 C1.34 2 0.68 2 0 2 C0 1.34 0 0.68 0 0 Z " fill="#E5A38E" transform="translate(254,293)"></path><path d="M0 0 C1.98 0 3.96 0 6 0 C6.33 2.31 6.66 4.62 7 7 C8.50930183 3.6136749 8.50930183 3.6136749 9 0 C10.65 0 12.3 0 14 0 C14 0.66 14 1.32 14 2 C13.01 2.495 13.01 2.495 12 3 C9.6893502 6.97431766 8.5425148 10.44287564 8 15 C8.99 15 9.98 15 11 15 C11 15.66 11 16.32 11 17 C8.36 17 5.72 17 3 17 C3 16.34 3 15.68 3 15 C3.99 15 4.98 15 6 15 C4.34381222 8.8777762 4.34381222 8.8777762 2 3 C1.34 2.67 0.68 2.34 0 2 C0 1.34 0 0.68 0 0 Z " fill="#E39D87" transform="translate(301,293)"></path><path d="M0 0 C0.66 0 1.32 0 2 0 C2 2.31 2 4.62 2 7 C3.32 6.67 4.64 6.34 6 6 C6 4.02 6 2.04 6 0 C7.32 0.66 8.64 1.32 10 2 C9.67 3.65 9.34 5.3 9 7 C8.34 7 7.68 7 7 7 C7.99 8.485 7.99 8.485 9 10 C9 11.32 9 12.64 9 14 C9.66 14 10.32 14 11 14 C11 14.66 11 15.32 11 16 C9.125 15.875 9.125 15.875 7 15 C6.29618843 13.01276732 5.6288189 11.01222047 5 9 C4.01 8.67 3.02 8.34 2 8 C2 10.31 2 12.62 2 15 C1.34 15 0.68 15 0 15 C0 10.05 0 5.1 0 0 Z " fill="#E19780" transform="translate(131,294)"></path><path d="M0 0 C2.97 0 5.94 0 9 0 C9.33 2.31 9.66 4.62 10 7 C8.35 7.33 6.7 7.66 5 8 C5 5.69 5 3.38 5 1 C4.34 1 3.68 1 3 1 C3 5.95 3 10.9 3 16 C4.32 15.67 5.64 15.34 7 15 C7 15.66 7 16.32 7 17 C4.69 17 2.38 17 0 17 C0 16.34 0 15.68 0 15 C0.66 15 1.32 15 2 15 C2 10.71 2 6.42 2 2 C1.34 2 0.68 2 0 2 C0 1.34 0 0.68 0 0 Z " fill="#EAB7A7" transform="translate(128,293)"></path><path d="M0 0 C1.98 0 3.96 0 6 0 C6 0.66 6 1.32 6 2 C5.34 2 4.68 2 4 2 C4 6.29 4 10.58 4 15 C5.98 15 7.96 15 10 15 C10 14.01 10 13.02 10 12 C10.66 12 11.32 12 12 12 C12 13.65 12 15.3 12 17 C8.04 17 4.08 17 0 17 C0 16.34 0 15.68 0 15 C0.66 15 1.32 15 2 15 C2 10.71 2 6.42 2 2 C1.34 2 0.68 2 0 2 C0 1.34 0 0.68 0 0 Z " fill="#E09179" transform="translate(231,293)"></path><path d="M0 0 C1.98 0 3.96 0 6 0 C6 5.61 6 11.22 6 17 C4.02 17 2.04 17 0 17 C0 16.34 0 15.68 0 15 C0.66 15 1.32 15 2 15 C2 10.71 2 6.42 2 2 C1.34 2 0.68 2 0 2 C0 1.34 0 0.68 0 0 Z " fill="#E5A691" transform="translate(110,293)"></path><path d="M0 0 C0.66 0.99 1.32 1.98 2 3 C1 6 1 6 -0.30078125 7.703125 C-2.63801301 10.86241758 -4.37004085 14.27283583 -6.1875 17.75 C-6.73954102 18.79607422 -6.73954102 18.79607422 -7.30273438 19.86328125 C-8.20490847 21.57389707 -9.10287712 23.2867297 -10 25 C-10.66 24.67 -11.32 24.34 -12 24 C-10.32084186 19.32037894 -7.91100887 15.16554145 -5.4375 10.875 C-4.62126499 9.45712697 -3.80736435 8.03790688 -2.99609375 6.6171875 C-2.63700928 5.99440918 -2.2779248 5.37163086 -1.90795898 4.72998047 C-0.85804318 2.84224152 -0.85804318 2.84224152 0 0 Z " fill="#E1947D" transform="translate(156,194)"></path><path d="M0 0 C2.97 0 5.94 0 9 0 C8.67 0.99 8.34 1.98 8 3 C8 2.34 8 1.68 8 1 C6.02 1 4.04 1 2 1 C2 2.98 2 4.96 2 7 C3.32 7 4.64 7 6 7 C6.33 6.34 6.66 5.68 7 5 C7 6.65 7 8.3 7 10 C6.67 9.34 6.34 8.68 6 8 C4.68 8 3.36 8 2 8 C2 10.31 2 12.62 2 15 C1.34 15 0.68 15 0 15 C0 10.05 0 5.1 0 0 Z " fill="#DF8C73" transform="translate(209,294)"></path><path d="M0 0 C0.69287109 0.00451172 1.38574219 0.00902344 2.09960938 0.01367188 C3.79561068 0.02536844 5.49156703 0.04330076 7.1875 0.0625 C7.1875 0.3925 7.1875 0.7225 7.1875 1.0625 C2.7325 1.5575 2.7325 1.5575 -1.8125 2.0625 C0.8275 2.3925 3.4675 2.7225 6.1875 3.0625 C6.1875 3.3925 6.1875 3.7225 6.1875 4.0625 C3.77015458 4.14367951 1.35555051 4.20306926 -1.0625 4.25 C-1.74441406 4.27513672 -2.42632812 4.30027344 -3.12890625 4.32617188 C-6.40449289 4.37387459 -8.46598556 4.27335076 -11.296875 2.55078125 C-11.79703125 2.05964844 -12.2971875 1.56851563 -12.8125 1.0625 C-8.52952469 0.00630997 -4.38264354 -0.05452092 0 0 Z " fill="#E29A82" transform="translate(282.8125,245.9375)"></path><path d="M0 0 C0 3 0 3 -1.6875 5.0859375 C-11.56013948 14.85851645 -11.56013948 14.85851645 -17 17 C-17.99 16.67 -18.98 16.34 -20 16 C-19.14277344 15.43152344 -18.28554687 14.86304688 -17.40234375 14.27734375 C-10.99058765 9.96755707 -5.24663511 5.73469419 0 0 Z " fill="#DD896E" transform="translate(126,243)"></path><path d="M0 0 C0.33 0 0.66 0 1 0 C1.33 2.31 1.66 4.62 2 7 C4.31 7.66 6.62 8.32 9 9 C9 8.01 9 7.02 9 6 C9.99 6 10.98 6 12 6 C12 7.32 12 8.64 12 10 C8.94306678 11.52846661 6.37015453 11.23242445 3 11 C0.5625 9.5 0.5625 9.5 -1 8 C-0.67 5.36 -0.34 2.72 0 0 Z " fill="#E19A83" transform="translate(155,299)"></path><path d="M0 0 C1.65 0 3.3 0 5 0 C5 0.66 5 1.32 5 2 C4.34 2 3.68 2 3 2 C3 6.62 3 11.24 3 16 C2.34 16 1.68 16 1 16 C0.67 10.72 0.34 5.44 0 0 Z " fill="#E2967F" transform="translate(93,293)"></path><path d="M0 0 C1.98 0 3.96 0 6 0 C6 3.3 6 6.6 6 10 C5.34 9.67 4.68 9.34 4 9 C4 8.01 4 7.02 4 6 C2.68 6 1.36 6 0 6 C0 4.02 0 2.04 0 0 Z " fill="#FAF0EC" transform="translate(282,295)"></path><path d="M0 0 C0.33 0.99 0.66 1.98 1 3 C1.66 3.33 2.32 3.66 3 4 C2.67 6.97 2.34 9.94 2 13 C2.66 13 3.32 13 4 13 C4 13.66 4 14.32 4 15 C2.02 15 0.04 15 -2 15 C-2 14.34 -2 13.68 -2 13 C-1.34 13 -0.68 13 0 13 C0 8.71 0 4.42 0 0 Z " fill="#E8AF9D" transform="translate(80,295)"></path><path d="M0 0 C0.66 0 1.32 0 2 0 C2 2.31 2 4.62 2 7 C3.32 7.33 4.64 7.66 6 8 C4.68 8 3.36 8 2 8 C2 10.31 2 12.62 2 15 C1.34 15 0.68 15 0 15 C0 10.05 0 5.1 0 0 Z " fill="#DE8D73" transform="translate(131,294)"></path><path d="M0 0 C1.98 0 3.96 0 6 0 C6.33 1.32 6.66 2.64 7 4 C6.01 4 5.02 4 4 4 C4 4.66 4 5.32 4 6 C2.68 6 1.36 6 0 6 C0 4.02 0 2.04 0 0 Z " fill="#FAF1EF" transform="translate(211,295)"></path><path d="M0 0 C0.66 0 1.32 0 2 0 C2 1.65 2 3.3 2 5 C-2.29 5 -6.58 5 -11 5 C-11 4.34 -11 3.68 -11 3 C-7.37 3 -3.74 3 0 3 C0 2.01 0 1.02 0 0 Z " fill="#E6AB98" transform="translate(217,305)"></path><path d="M0 0 C1.32 0 2.64 0 4 0 C4 0.99 4 1.98 4 3 C4.66 3 5.32 3 6 3 C6 3.99 6 4.98 6 6 C4.02 6 2.04 6 0 6 C0 4.02 0 2.04 0 0 Z " fill="#FCF7F5" transform="translate(282,302)"></path><path d="M0 0 C1.65 0 3.3 0 5 0 C5 1.65 5 3.3 5 5 C3.35 5.33 1.7 5.66 0 6 C0 4.02 0 2.04 0 0 Z " fill="#FCF8F6" transform="translate(133,295)"></path><path d="M0 0 C0.66 0 1.32 0 2 0 C2 1.65 2 3.3 2 5 C-1.96 5 -5.92 5 -10 5 C-10 4.34 -10 3.68 -10 3 C-6.7 3 -3.4 3 0 3 C0 2.01 0 1.02 0 0 Z " fill="#E6A693" transform="translate(241,305)"></path><path d="M0 0 C1.49080078 0.02707031 1.49080078 0.02707031 3.01171875 0.0546875 C3.77097656 0.07789063 4.53023438 0.10109375 5.3125 0.125 C5.6425 1.115 5.9725 2.105 6.3125 3.125 C1.3625 2.795 -3.5875 2.465 -8.6875 2.125 C-5.26655758 -0.15562828 -4.00562778 -0.09425007 0 0 Z " fill="#DC8265" transform="translate(286.6875,246.875)"></path><path d="M0 0 C2.31 0 4.62 0 7 0 C7 0.66 7 1.32 7 2 C5.68 2 4.36 2 3 2 C3 6.29 3 10.58 3 15 C2.67 15 2.34 15 2 15 C2 10.71 2 6.42 2 2 C1.34 2 0.68 2 0 2 C0 1.34 0 0.68 0 0 Z " fill="#E5A691" transform="translate(178,293)"></path><path d="M0 0 C0.66 0.66 1.32 1.32 2 2 C1.75 3.6875 1.75 3.6875 1 6 C0.649375 7.2375 0.29875 8.475 -0.0625 9.75 C-0.5265625 11.35875 -0.5265625 11.35875 -1 13 C-1.99 12.67 -2.98 12.34 -4 12 C-4 11.34 -4 10.68 -4 10 C-3.34 10 -2.68 10 -2 10 C-1.855625 8.906875 -1.71125 7.81375 -1.5625 6.6875 C-1 3 -1 3 0 0 Z " fill="#E29B85" transform="translate(166,235)"></path><path d="M0 0 C0.99 0.33 1.98 0.66 3 1 C0.33333333 3.66666667 -2.33333333 6.33333333 -5 9 C-5.99 8.67 -6.98 8.34 -8 8 C-5.36 5.36 -2.72 2.72 0 0 Z " fill="#E1967F" transform="translate(195,195)"></path><path d="M0 0 C0.33 0 0.66 0 1 0 C1 4.29 1 8.58 1 13 C1.66 13 2.32 13 3 13 C3 13.66 3 14.32 3 15 C1.02 15 -0.96 15 -3 15 C-3 14.34 -3 13.68 -3 13 C-2.01 13 -1.02 13 0 13 C0 8.71 0 4.42 0 0 Z " fill="#DF8F75" transform="translate(181,295)"></path><path d="M0 0 C0.99 0 1.98 0 3 0 C3.6875 1.75 3.6875 1.75 4 4 C2.5625 6.25 2.5625 6.25 1 8 C0.26919734 6.02253397 -0.39421747 4.01927511 -1 2 C-0.67 1.34 -0.34 0.68 0 0 Z " fill="#FAF6F4" transform="translate(307,293)"></path><path d="M0 0 C0.33 0 0.66 0 1 0 C1.1953125 6.0546875 1.1953125 6.0546875 1 8 C0.34 8.66 -0.32 9.32 -1 10 C-1.66 9.67 -2.32 9.34 -3 9 C-2.01 6.03 -1.02 3.06 0 0 Z " fill="#FBF4F2" transform="translate(92,300)"></path><path d="M0 0 C1.65 0 3.3 0 5 0 C5 0.66 5 1.32 5 2 C4.01 2.495 4.01 2.495 3 3 C2.27840576 4.64363134 1.60648579 6.31050386 1 8 C0.34 8 -0.32 8 -1 8 C-0.67 5.36 -0.34 2.72 0 0 Z " fill="#E6AA97" transform="translate(310,293)"></path><path d="M0 0 C-1.49097658 3.7952131 -3.75700849 5.61042731 -7 8 C-7 5 -7 5 -4.625 2.3125 C-2 0 -2 0 0 0 Z " fill="#E1957D" transform="translate(269,135)"></path><path d="M0 0 C0.66 0.99 1.32 1.98 2 3 C1.3203125 5.26171875 1.3203125 5.26171875 0.125 7.6875 C-0.26429687 8.49574219 -0.65359375 9.30398438 -1.0546875 10.13671875 C-1.52261719 11.05904297 -1.52261719 11.05904297 -2 12 C-2.99 11.34 -3.98 10.68 -5 10 C-4.34 10 -3.68 10 -3 10 C-2.01 6.7 -1.02 3.4 0 0 Z " fill="#E6A996" transform="translate(92,295)"></path><path d="M0 0 C1.65 0 3.3 0 5 0 C5.33 1.98 5.66 3.96 6 6 C5.01 5.67 4.02 5.34 3 5 C3 4.01 3 3.02 3 2 C2.01 2 1.02 2 0 2 C0 1.34 0 0.68 0 0 Z " fill="#E39E89" transform="translate(78,293)"></path><path d="M0 0 C1.10844919 3.32534757 0.84454356 5.62182575 0 9 C-0.99 9 -1.98 9 -3 9 C-3.33 8.34 -3.66 7.68 -4 7 C-3.22265625 5.2734375 -3.22265625 5.2734375 -2.0625 3.375 C-1.381875 2.26125 -0.70125 1.1475 0 0 Z " fill="#F5E3DD" transform="translate(156,199)"></path><path d="M0 0 C0.99 0 1.98 0 3 0 C3 1.32 3 2.64 3 4 C1.1875 4.625 1.1875 4.625 -1 5 C-1.99 4.34 -2.98 3.68 -4 3 C-2.68 3 -1.36 3 0 3 C0 2.01 0 1.02 0 0 Z " fill="#EAB8A8" transform="translate(164,305)"></path></svg>