<svg xmlns="http://www.w3.org/2000/svg" width="400" height="400"><path d="M0 0 C131.67 0 263.34 0 399 0 C399 30.69 399 61.38 399 93 C267.33 93 135.66 93 0 93 C0 62.31 0 31.62 0 0 Z M7 8 C7 33.41 7 58.82 7 85 C133.72 85 260.44 85 391 85 C391 59.59 391 34.18 391 8 C264.28 8 137.56 8 7 8 Z " fill="#333333" transform="translate(1,141)"></path><path d="M0 0 C3.3 0 6.6 0 10 0 C10 5.61 10 11.22 10 17 C10.99 17 11.98 17 13 17 C13 11.39 13 5.78 13 0 C16.3 0 19.6 0 23 0 C23 14.85 23 29.7 23 45 C19.7 45 16.4 45 13 45 C13 39.39 13 33.78 13 28 C12.01 28 11.02 28 10 28 C10 33.61 10 39.22 10 45 C6.7 45 3.4 45 0 45 C0 30.15 0 15.3 0 0 Z " fill="#333333" transform="translate(131,165)"></path><path d="M0 0 C3.64581687 -0.02887512 7.29160463 -0.04675585 10.9375 -0.0625 C12.49887695 -0.07506836 12.49887695 -0.07506836 14.09179688 -0.08789062 C15.57583008 -0.09272461 15.57583008 -0.09272461 17.08984375 -0.09765625 C18.46450806 -0.10551147 18.46450806 -0.10551147 19.86694336 -0.11352539 C22 0 22 0 23 1 C23.12588715 3.59613627 23.18866582 6.16418921 23.203125 8.76171875 C23.20882507 9.54513138 23.21452515 10.32854401 23.22039795 11.13569641 C23.2298654 12.79935347 23.23638883 14.46302943 23.24023438 16.12670898 C23.24989392 18.6596823 23.28088038 21.19182833 23.3125 23.72460938 C23.31903456 25.34114102 23.32428325 26.95767847 23.328125 28.57421875 C23.3404718 29.32757004 23.3528186 30.08092133 23.36553955 30.85710144 C23.34543774 35.66011781 22.54373622 38.9227213 20 43 C16.58498294 45.92715748 13.49414039 46.52500221 9 46.36328125 C5.70835566 45.76538491 3.53115856 44.09900954 1 42 C-0.69196504 38.61606992 -0.11986549 34.77522209 -0.09765625 31.0546875 C-0.0962413 30.1696756 -0.09482635 29.2846637 -0.09336853 28.37283325 C-0.0877614 25.54018809 -0.07520771 22.70762136 -0.0625 19.875 C-0.05748592 17.95703239 -0.05292285 16.03906354 -0.04882812 14.12109375 C-0.03778966 9.41403218 -0.02052025 4.7070294 0 0 Z M14 7 C14 7.99 14 8.98 14 10 C11.03 9.505 11.03 9.505 8 9 C8.16298584 9.71567139 8.32597168 10.43134277 8.49389648 11.16870117 C8.99192071 13.95480197 9.1141835 16.47462208 9.09765625 19.30078125 C9.09443359 20.27724609 9.09121094 21.25371094 9.08789062 22.25976562 C9.07951172 23.26716797 9.07113281 24.27457031 9.0625 25.3125 C9.05798828 26.33923828 9.05347656 27.36597656 9.04882812 28.42382812 C9.03708184 30.94927882 9.02065565 33.47460905 9 36 C10.32 36 11.64 36 13 36 C12.98952637 35.34926514 12.97905273 34.69853027 12.96826172 34.02807617 C12.92670165 31.0812567 12.90067392 28.13449889 12.875 25.1875 C12.85824219 24.16333984 12.84148437 23.13917969 12.82421875 22.08398438 C12.81777344 21.10107422 12.81132812 20.11816406 12.8046875 19.10546875 C12.79421387 18.19949951 12.78374023 17.29353027 12.77294922 16.36010742 C13 14 13 14 15 11 C14.69159401 8.84725052 14.69159401 8.84725052 14 7 Z " fill="#333333" transform="translate(206,165)"></path><path d="M0 0 C3.63467079 1.62400184 4.77408696 2.66113044 7 6 C7.25760279 8.69452521 7.08900053 11.28548375 7 14 C5.70990357 14.50403768 4.41786211 15.00309926 3.125 15.5 C2.04605469 15.91765625 2.04605469 15.91765625 0.9453125 16.34375 C-1 17 -1 17 -3 17 C-3 14.36 -3 11.72 -3 9 C-3.99 9.495 -3.99 9.495 -5 10 C-5.45536649 12.79688803 -5.45536649 12.79688803 -5 16 C-2.65336064 18.63893502 -2.65336064 18.63893502 0.4375 20.8125 C1.44683594 21.58207031 2.45617187 22.35164063 3.49609375 23.14453125 C4.32238281 23.75683594 5.14867188 24.36914062 6 25 C7.91983213 26.91983213 7.30549517 30.12918762 7.375 32.6875 C7.33478934 40.58487396 7.33478934 40.58487396 4.6875 43.8125 C0.51771066 47.20651458 -2.7331654 47.36322997 -8 47 C-12.14798495 45.20882468 -14.2414131 43.16507424 -16 39 C-16.23272824 36.2780915 -16.13939346 33.74140478 -16 31 C-12.38026598 29.68373308 -9.90432869 29 -6 29 C-6 31.64 -6 34.28 -6 37 C-5.01 37 -4.02 37 -3 37 C-3.21071337 32.68564369 -3.43107272 30.59503312 -6.46875 27.41796875 C-7.4690625 26.68191406 -8.469375 25.94585937 -9.5 25.1875 C-14.94438723 21.11122554 -14.94438723 21.11122554 -16 19 C-17.03994013 9.07599989 -17.03994013 9.07599989 -14.953125 4.91015625 C-10.55184839 -0.38432062 -6.50603519 -0.64159863 0 0 Z " fill="#333333" transform="translate(35,164)"></path><path d="M0 0 C2.31 0 4.62 0 7 0 C8.98 4.62 10.96 9.24 13 14 C13.78375 12.4325 14.5675 10.865 15.375 9.25 C17.6875 4.625 17.6875 4.625 20 0 C21.99954746 -0.04254356 24.00041636 -0.04080783 26 0 C28.09441119 2.09441119 27.16414502 6.66665682 27.16796875 9.55859375 C27.17129715 10.41808121 27.17462555 11.27756866 27.17805481 12.1631012 C27.1831277 13.98478661 27.18546302 15.80648136 27.18530273 17.62817383 C27.18748803 20.4221929 27.20563644 23.21581657 27.22460938 26.00976562 C27.2275434 27.77604031 27.22952814 29.54231688 27.23046875 31.30859375 C27.23765427 32.14821152 27.24483978 32.98782928 27.25224304 33.85289001 C27.22882181 39.77117819 27.22882181 39.77117819 25 42 C20.44444444 41.44444444 20.44444444 41.44444444 19 40 C18.84417697 38.65984779 18.74955858 37.31241097 18.68359375 35.96484375 C18.64169922 35.15595703 18.59980469 34.34707031 18.55664062 33.51367188 C18.51732422 32.66353516 18.47800781 31.81339844 18.4375 30.9375 C18.39431641 30.08349609 18.35113281 29.22949219 18.30664062 28.34960938 C18.20023298 26.23327963 18.09958269 24.11666187 18 22 C16.68 24.31 15.36 26.62 14 29 C13.34 29 12.68 29 12 29 C10.68 26.36 9.36 23.72 8 21 C7.67 27.6 7.34 34.2 7 41 C2 42 2 42 0 41 C0 27.47 0 13.94 0 0 Z " fill="#333333" transform="translate(355,167)"></path><path d="M0 0 C6.27 0 12.54 0 19 0 C19 2.97 19 5.94 19 9 C18 10 18 10 16.15234375 10.09765625 C14.1015625 10.06510417 12.05078125 10.03255208 10 10 C10 12.31 10 14.62 10 17 C12.64 17 15.28 17 18 17 C18.02689216 18.47906892 18.04634621 19.95827483 18.0625 21.4375 C18.07410156 22.26121094 18.08570312 23.08492187 18.09765625 23.93359375 C18 26 18 26 17 27 C14.66702567 27.04092937 12.33294775 27.04241723 10 27 C10 29.64 10 32.28 10 35 C12.97 35 15.94 35 19 35 C19 38.3 19 41.6 19 45 C12.73 45 6.46 45 0 45 C0 30.15 0 15.3 0 0 Z " fill="#333333" transform="translate(58,165)"></path><path d="M0 0 C3.38939556 2.13679285 4.72582557 3.1774767 6 7 C6.24970262 11.25355504 6.27072969 15.5091427 6.29516602 19.76904297 C6.30669338 21.16953631 6.3271577 22.56998545 6.35668945 23.97021484 C6.39945674 25.99867458 6.41554464 28.0258324 6.42578125 30.0546875 C6.44036377 31.26624512 6.45494629 32.47780273 6.4699707 33.72607422 C5.91199157 37.6130873 4.72822631 39.23273101 2 42 C-1.20662888 43.60331444 -4.52103353 43.48652213 -8 43 C-12.54551945 40.29203097 -12.54551945 40.29203097 -13.6184082 37.24194336 C-14.49555949 32.08846909 -14.18477242 26.77489914 -14.1875 21.5625 C-14.19974609 20.33466797 -14.21199219 19.10683594 -14.22460938 17.84179688 C-14.22654297 16.65779297 -14.22847656 15.47378906 -14.23046875 14.25390625 C-14.23457764 13.17439697 -14.23868652 12.0948877 -14.24291992 10.98266602 C-13.99174906 7.8986917 -13.39042719 5.75333015 -12 3 C-8.13353772 -0.20364017 -4.93185301 -0.61648163 0 0 Z M-6 6 C-7.31775285 7.09187983 -7.31775285 7.09187983 -7.11352539 9.77563477 C-7.10828857 10.98533936 -7.10305176 12.19504395 -7.09765625 13.44140625 C-7.09443359 14.74658203 -7.09121094 16.05175781 -7.08789062 17.39648438 C-7.07953401 18.7851569 -7.07106905 20.17382877 -7.0625 21.5625 C-7.05748666 22.95507656 -7.05292347 24.34765481 -7.04882812 25.74023438 C-7.03699434 29.1601987 -7.0205088 32.58007844 -7 36 C-5.34385343 36.38218767 -3.67542976 36.71395102 -2 37 C-0.68224715 35.90812017 -0.68224715 35.90812017 -0.88647461 33.22436523 C-0.89171143 32.01466064 -0.89694824 30.80495605 -0.90234375 29.55859375 C-0.90556641 28.25341797 -0.90878906 26.94824219 -0.91210938 25.60351562 C-0.92046599 24.2148431 -0.92893095 22.82617123 -0.9375 21.4375 C-0.94251334 20.04492344 -0.94707653 18.65234519 -0.95117188 17.25976562 C-0.96300566 13.8398013 -0.9794912 10.41992156 -1 7 C-2.65614657 6.61781233 -4.32457024 6.28604898 -6 6 Z " fill="#333333" transform="translate(339,166)"></path><path d="M0 0 C7.26 0 14.52 0 22 0 C22 2.97 22 5.94 22 9 C21.67 9.33 21.34 9.66 21 10 C19.35 10 17.7 10 16 10 C16 21.55 16 33.1 16 45 C12.7 45 9.4 45 6 45 C6 33.45 6 21.9 6 10 C4.35 10 2.7 10 1 10 C0.67 9.67 0.34 9.34 0 9 C0 6.03 0 3.06 0 0 Z " fill="#333333" transform="translate(93,165)"></path><path d="M0 0 C3.3 0 6.6 0 10 0 C10 11.55 10 23.1 10 35 C13.3 35 16.6 35 20 35 C20 38.3 20 41.6 20 45 C13.4 45 6.8 45 0 45 C0 30.15 0 15.3 0 0 Z " fill="#333333" transform="translate(170,165)"></path><path d="M0 0 C4.40858601 2.40468328 4.40858601 2.40468328 6 5 C6.49217729 8.39343291 6.3567502 11.59766011 6 15 C4.34385343 15.38218767 2.67542976 15.71395102 1 16 C-0.96822886 14.03177114 -0.66248381 10.65191291 -1 8 C-2.94603274 7.40929986 -2.94603274 7.40929986 -5 7 C-6.31775285 8.09187983 -6.31775285 8.09187983 -6.11352539 10.77563477 C-6.10828857 11.98533936 -6.10305176 13.19504395 -6.09765625 14.44140625 C-6.09443359 15.74658203 -6.09121094 17.05175781 -6.08789062 18.39648438 C-6.07953401 19.7851569 -6.07106905 21.17382877 -6.0625 22.5625 C-6.05748666 23.95507656 -6.05292347 25.34765481 -6.04882812 26.74023438 C-6.03699434 30.1601987 -6.0205088 33.58007844 -6 37 C-4.35 37 -2.7 37 -1 37 C-0.67 33.04 -0.34 29.08 0 25 C1.98 25 3.96 25 6 25 C6.76980219 36.68388658 6.76980219 36.68388658 4.0625 41.3125 C0.56965201 43.23713052 -1.79394377 43.5949638 -5.71875 43.6640625 C-9.21821766 42.64538184 -10.70840976 40.79557699 -13 38 C-13.51310515 35.2770464 -13.72709567 33.18432791 -13.69921875 30.46875 C-13.70995171 29.39844543 -13.70995171 29.39844543 -13.72090149 28.30651855 C-13.72865665 26.80380496 -13.72371234 25.30097813 -13.70678711 23.79833984 C-13.68754462 21.50531707 -13.72697087 19.21834989 -13.77148438 16.92578125 C-13.77177475 15.46093391 -13.76863438 13.99608104 -13.76171875 12.53125 C-13.77700119 11.85090698 -13.79228363 11.17056396 -13.80802917 10.46960449 C-13.74142395 7.73423585 -13.48993299 5.60338032 -11.73623657 3.44360352 C-7.8144177 -0.00248883 -5.14455192 -0.91866999 0 0 Z " fill="#333333" transform="translate(309,166)"></path><path d="M0 0 C3.3 0 6.6 0 10 0 C10 14.85 10 29.7 10 45 C6.7 45 3.4 45 0 45 C0 30.15 0 15.3 0 0 Z " fill="#333333" transform="translate(244,165)"></path><path d="M0 0 C1.3303125 0.37125 1.3303125 0.37125 2.6875 0.75 C2.88156478 2.39507218 3.06757935 4.04109594 3.25 5.6875 C3.35441406 6.60402344 3.45882813 7.52054687 3.56640625 8.46484375 C3.60636719 9.21894531 3.64632813 9.97304688 3.6875 10.75 C2.09882134 12.33867866 0.44060484 11.95794039 -1.75 12 C-2.55308594 12.02578125 -3.35617188 12.0515625 -4.18359375 12.078125 C-4.88613281 11.96984375 -5.58867187 11.8615625 -6.3125 11.75 C-8.4735211 8.50846834 -8.95497553 7.51307099 -8.3125 3.75 C-5.48965306 0.59505343 -4.28023189 -0.32303637 0 0 Z M-3.3125 3.75 C-3.6425 5.07 -3.9725 6.39 -4.3125 7.75 C-2.9925 8.08 -1.6725 8.41 -0.3125 8.75 C-0.9725 8.42 -1.6325 8.09 -2.3125 7.75 C-2.3125 6.76 -2.3125 5.77 -2.3125 4.75 C-1.6525 4.42 -0.9925 4.09 -0.3125 3.75 C-1.3025 3.75 -2.2925 3.75 -3.3125 3.75 Z " fill="#333333" transform="translate(256.3125,249.25)"></path><path d="M0 0 C1 1 1 1 1.1875 4.4375 C1 8 1 8 -1 10 C-2.875 10.265625 -2.875 10.265625 -5 10.25 C-5.70125 10.25515625 -6.4025 10.2603125 -7.125 10.265625 C-9 10 -9 10 -11 8 C-11.4375 4.5625 -11.4375 4.5625 -11 1 C-7.17234776 -2.71507424 -4.63784269 -2.10811031 0 0 Z M-7 2 C-7.33 2.99 -7.66 3.98 -8 5 C-7.67 5.66 -7.34 6.32 -7 7 C-5.68 7 -4.36 7 -3 7 C-3.33 5.35 -3.66 3.7 -4 2 C-4.99 2 -5.98 2 -7 2 Z " fill="#333333" transform="translate(98,251)"></path><path d="M0 0 C2.91461599 1.22720673 3.96072328 2.17144656 5.375 5 C5.13425978 8.37036311 4.78701979 9.58798021 2.375 12 C0.5 12.30078125 0.5 12.30078125 -1.625 12.3125 C-2.32625 12.32925781 -3.0275 12.34601563 -3.75 12.36328125 C-4.36875 12.24339844 -4.9875 12.12351562 -5.625 12 C-7.7860211 8.75846834 -8.26747553 7.76307099 -7.625 4 C-5.12004674 1.28033646 -3.75882357 0 0 0 Z M-2.625 4 C-2.955 5.32 -3.285 6.64 -3.625 8 C-2.305 8.33 -0.985 8.66 0.375 9 C0.705 7.68 1.035 6.36 1.375 5 C0.055 4.67 -1.265 4.34 -2.625 4 Z " fill="#333333" transform="translate(108.625,249)"></path><path d="M0 0 C5 1 5 1 7 3 C7.33 2.01 7.66 1.02 8 0 C8.99 0 9.98 0 11 0 C11 3.63 11 7.26 11 11 C9.68 11 8.36 11 7 11 C6.34 10.01 5.68 9.02 5 8 C4.67 8.99 4.34 9.98 4 11 C2.68 11 1.36 11 0 11 C0 7.37 0 3.74 0 0 Z " fill="#333333" transform="translate(228,250)"></path><path d="M0 0 C6.8359375 -0.1953125 6.8359375 -0.1953125 9 0 C9.66 0.66 10.32 1.32 11 2 C10.70131344 4.00546689 10.36628677 6.00577205 10 8 C10.33 8.99 10.66 9.98 11 11 C6.125 10.125 6.125 10.125 5 9 C4.67 9.66 4.34 10.32 4 11 C2.68 11 1.36 11 0 11 C0 7.37 0 3.74 0 0 Z M4 3 C4 3.66 4 4.32 4 5 C4.99 5 5.98 5 7 5 C7 4.34 7 3.68 7 3 C6.01 3 5.02 3 4 3 Z " fill="#333333" transform="translate(154,250)"></path><path d="M0 0 C7.35678392 -0.36180905 7.35678392 -0.36180905 10 1.125 C11.45670212 3.85631647 11.32339354 5.96010077 11 9 C9 11 9 11 6.8359375 11.1953125 C4.55729167 11.13020833 2.27864583 11.06510417 0 11 C0 7.37 0 3.74 0 0 Z M4 3 C4 4.65 4 6.3 4 8 C4.99 8 5.98 8 7 8 C6.67 6.35 6.34 4.7 6 3 C5.34 3 4.68 3 4 3 Z " fill="#333333" transform="translate(116,250)"></path><path d="M0 0 C1.32 0 2.64 0 4 0 C4 1.32 4 2.64 4 4 C4.99 4 5.98 4 7 4 C7 2.68 7 1.36 7 0 C8.32 0 9.64 0 11 0 C11 3.63 11 7.26 11 11 C9.68 11 8.36 11 7 11 C7 9.68 7 8.36 7 7 C6.01 7 5.02 7 4 7 C4 8.32 4 9.64 4 11 C2.68 11 1.36 11 0 11 C0 7.37 0 3.74 0 0 Z " fill="#333333" transform="translate(262,250)"></path><path d="M0 0 C2.97 0 5.94 0 9 0 C8.96744792 1.98567708 8.93489583 3.97135417 8.90234375 5.95703125 C8.91736783 8.20305461 8.91736783 8.20305461 10 11 C6.7 11 3.4 11 0 11 C0 7.37 0 3.74 0 0 Z " fill="#333333" transform="translate(192,250)"></path><path d="M0 0 C2.875 0.6875 2.875 0.6875 3.875 1.6875 C4.33191383 6.94200902 4.33191383 6.94200902 2.6875 9.625 C0.875 10.6875 0.875 10.6875 -1.6875 10.5 C-4.125 9.6875 -4.125 9.6875 -6.125 7.6875 C-6.4375 4.6875 -6.4375 4.6875 -6.125 1.6875 C-3.125 -0.3125 -3.125 -0.3125 0 0 Z " fill="#333333" transform="translate(276.125,200.3125)"></path><path d="M0 0 C2.97 0 5.94 0 9 0 C8.814375 1.0725 8.62875 2.145 8.4375 3.25 C7.76775571 7.07210322 7.76775571 7.07210322 9 11 C6.03 11 3.06 11 0 11 C0 7.37 0 3.74 0 0 Z " fill="#333333" transform="translate(316,250)"></path><path d="M0 0 C3.3 0 6.6 0 10 0 C9.67 2.64 9.34 5.28 9 8 C7.35 8 5.7 8 4 8 C4 8.99 4 9.98 4 11 C2.68 11 1.36 11 0 11 C0 7.37 0 3.74 0 0 Z " fill="#333333" transform="translate(304,250)"></path><path d="M0 0 C1.921875 0.12109375 1.921875 0.12109375 4 1 C5.265625 3.28515625 5.265625 3.28515625 6.25 6.0625 C6.58515625 6.98160156 6.9203125 7.90070313 7.265625 8.84765625 C7.50796875 9.55792969 7.7503125 10.26820313 8 11 C6.783125 10.814375 5.56625 10.62875 4.3125 10.4375 C0.95655808 9.92557666 -1.69633066 10.21892231 -5 11 C-4.35731563 9.35293447 -3.71076198 7.70737825 -3.0625 6.0625 C-2.70285156 5.14597656 -2.34320313 4.22945312 -1.97265625 3.28515625 C-1 1 -1 1 0 0 Z " fill="#333333" transform="translate(171,250)"></path><path d="M0 0 C2.4375 0.8125 2.4375 0.8125 5 2 C5.33 2.99 5.66 3.98 6 5 C6.2475 4.360625 6.495 3.72125 6.75 3.0625 C8 1 8 1 10.125 0.25 C10.74375 0.1675 11.3625 0.085 12 0 C11.45660208 4.56454251 10.20536179 7.9728176 8 12 C6.68 12 5.36 12 4 12 C3.32645501 10.56570999 2.66140299 9.12742943 2 7.6875 C1.62875 6.88699219 1.2575 6.08648437 0.875 5.26171875 C0 3 0 3 0 0 Z " fill="#333333" transform="translate(178,249)"></path><path d="M0 0 C2.97 0 5.94 0 9 0 C8.67 2.64 8.34 5.28 8 8 C6.35 8 4.7 8 3 8 C3 8.99 3 9.98 3 11 C2.01 11 1.02 11 0 11 C0 7.37 0 3.74 0 0 Z " fill="#333333" transform="translate(76,250)"></path><path d="M0 0 C1.32 0 2.64 0 4 0 C4 2.31 4 4.62 4 7 C5.65 7.33 7.3 7.66 9 8 C9 8.99 9 9.98 9 11 C6.03 11 3.06 11 0 11 C0 7.37 0 3.74 0 0 Z " fill="#333333" transform="translate(204,250)"></path><path d="M0 0 C3.63 0 7.26 0 11 0 C11 0.99 11 1.98 11 3 C9.68 3 8.36 3 7 3 C7 5.64 7 8.28 7 11 C6.01 11 5.02 11 4 11 C4 8.36 4 5.72 4 3 C2.68 3 1.36 3 0 3 C0 2.01 0 1.02 0 0 Z " fill="#333333" transform="translate(274,250)"></path><path d="M0 0 C3.63 0 7.26 0 11 0 C11 0.99 11 1.98 11 3 C9.68 3 8.36 3 7 3 C7 5.64 7 8.28 7 11 C6.01 11 5.02 11 4 11 C4 8.36 4 5.72 4 3 C2.68 3 1.36 3 0 3 C0 2.01 0 1.02 0 0 Z " fill="#333333" transform="translate(142,250)"></path><path d="M0 0 C0.99 0 1.98 0 3 0 C3 2.64 3 5.28 3 8 C4.98 8 6.96 8 9 8 C9 8.99 9 9.98 9 11 C6.03 11 3.06 11 0 11 C0 7.37 0 3.74 0 0 Z " fill="#333333" transform="translate(287,250)"></path><path d="M0 0 C1.32 0 2.64 0 4 0 C4 3.63 4 7.26 4 11 C2.68 11 1.36 11 0 11 C0 7.37 0 3.74 0 0 Z " fill="#333333" transform="translate(242,250)"></path><path d="M0 0 C0.99 0 1.98 0 3 0 C3 3.63 3 7.26 3 11 C2.01 11 1.02 11 0 11 C0 7.37 0 3.74 0 0 Z " fill="#333333" transform="translate(298,250)"></path><path d="M0 0 C1.98 0.495 1.98 0.495 4 1 C4 2.32 4 3.64 4 5 C2.35 4.67 0.7 4.34 -1 4 C-0.67 2.68 -0.34 1.36 0 0 Z " fill="#333333" transform="translate(219,253)"></path><path d="M0 0 C1.98 0.495 1.98 0.495 4 1 C4 2.32 4 3.64 4 5 C2.35 4.67 0.7 4.34 -1 4 C-0.67 2.68 -0.34 1.36 0 0 Z " fill="#333333" transform="translate(133,253)"></path></svg>