<svg xmlns="http://www.w3.org/2000/svg" width="400" height="400"><path d="M0 0 C86.46 0 172.92 0 262 0 C262 86.46 262 172.92 262 262 C175.54 262 89.08 262 0 262 C0 175.54 0 89.08 0 0 Z " fill="#FDFDFD" transform="translate(68,68)"></path><path d="M0 0 C0 0.66 0 1.32 0 2 C0.721875 2.2475 1.44375 2.495 2.1875 2.75 C12.91014334 7.51561926 20.0896118 19.88012894 24.2578125 30.34375 C25.00850538 33.03044032 25.15075543 35.22610015 25 38 C25.66 38 26.32 38 27 38 C28.45109612 47.16632993 28.12868981 53.13837514 23 61 C21.92380034 57.77967947 21.96826428 54.78696801 22.06616211 51.41748047 C22.26253991 44.3918812 22.04483931 38.42087168 19 32 C18.47792969 30.86433594 17.95585937 29.72867188 17.41796875 28.55859375 C13.70492241 20.74068745 10.0915276 13.92706967 2.9375 8.75 C2.28652344 8.27046875 1.63554687 7.7909375 0.96484375 7.296875 C-0.96497914 6.02311516 -2.91086392 4.98640724 -5 4 C-5 3.34 -5 2.68 -5 2 C-24.72983239 -4.4099225 -41.14986386 -5.72126506 -61 1 C-61 1.66 -61 2.32 -61 3 C-62.94140625 4.26171875 -62.94140625 4.26171875 -65.5625 5.6875 C-77.41573221 12.63249239 -85.66399933 24.62720067 -89.53051758 37.80859375 C-92.22989046 50.40847467 -91.24670193 65.41322257 -84.52734375 76.41015625 C-82.06806744 80.07872209 -79.38652454 83.52330742 -76.60546875 86.953125 C-71.86700018 92.83058679 -67.83324735 98.67410157 -64.4375 105.4375 C-64.10306885 106.09959473 -63.7686377 106.76168945 -63.42407227 107.44384766 C-61.57742556 111.27900396 -60.47713024 114.77118816 -60 119 C-59.34 119 -58.68 119 -58 119 C-57.01 122.465 -57.01 122.465 -56 126 C-55.3965979 125.99555878 -54.7931958 125.99111755 -54.17150879 125.98654175 C-47.81081546 125.94180809 -41.45016781 125.91192928 -35.08935547 125.89013672 C-32.72507915 125.8801663 -30.36081487 125.86658511 -27.99658203 125.84912109 C-10.01662448 125.71976888 6.49284346 126.65312059 24 131 C25.43421831 131.32849309 26.86916031 131.65383729 28.3046875 131.9765625 C29.42532593 132.23107178 29.42532593 132.23107178 30.56860352 132.49072266 C32.01624907 132.81928197 33.46461027 133.14471135 34.91381836 133.46630859 C39.08656344 134.42859776 43.0136247 135.67837486 47.00268555 137.23291016 C50.296724 138.49802063 53.64881421 139.58487326 57 140.6875 C57.67933594 140.91244141 58.35867188 141.13738281 59.05859375 141.36914062 C60.70526476 141.91416554 62.35256455 142.45729014 64 143 C64 143.66 64 144.32 64 145 C64.82371094 145.08378906 65.64742187 145.16757813 66.49609375 145.25390625 C70.79167395 146.16857271 74.20091531 147.90034281 78.0625 149.9375 C84.40788338 153.23503219 84.40788338 153.23503219 91 156 C91 156.66 91 157.32 91 158 C91.9075 158.28875 92.815 158.5775 93.75 158.875 C97 160 97 160 101 162 C101 182.79 101 203.58 101 225 C14.54 225 -71.92 225 -161 225 C-161 204.87 -161 184.74 -161 164 C-157.65094547 160.65094547 -155.50621146 160.10529715 -151 159 C-151 158.34 -151 157.68 -151 157 C-149.23244474 156.15973604 -147.46082737 155.32801278 -145.6875 154.5 C-144.70136719 154.0359375 -143.71523437 153.571875 -142.69921875 153.09375 C-140 152 -140 152 -137 152 C-137 151.34 -137 150.68 -137 150 C-134.89828133 149.1605118 -132.79353375 148.32860344 -130.6875 147.5 C-129.51574219 147.0359375 -128.34398437 146.571875 -127.13671875 146.09375 C-124 145 -124 145 -121 145 C-121 144.34 -121 143.68 -121 143 C-118.41877492 142.15960114 -115.83536099 141.32749444 -113.25 140.5 C-112.52039063 140.26152344 -111.79078125 140.02304688 -111.0390625 139.77734375 C-110.33007812 139.55175781 -109.62109375 139.32617188 -108.890625 139.09375 C-108.24125977 138.88427734 -107.59189453 138.67480469 -106.92285156 138.45898438 C-105 138 -105 138 -101 138 C-101 137.34 -101 136.68 -101 136 C-100.22398437 135.82871582 -99.44796875 135.65743164 -98.6484375 135.48095703 C-95.09870594 134.69677558 -91.5493511 133.91090163 -88 133.125 C-86.77925781 132.85558594 -85.55851562 132.58617187 -84.30078125 132.30859375 C-76.78624481 130.64646883 -76.78624481 130.64646883 -69.3125 128.8125 C-66.37594852 128.09221379 -64.00169496 127.81239407 -61 128 C-61.2165625 127.38511719 -61.433125 126.77023438 -61.65625 126.13671875 C-61.9346875 125.32847656 -62.213125 124.52023438 -62.5 123.6875 C-62.7784375 122.88699219 -63.056875 122.08648437 -63.34375 121.26171875 C-64 119 -64 119 -64 116 C-64.66 116 -65.32 116 -66 116 C-66.32871094 115.12859375 -66.65742188 114.2571875 -66.99609375 113.359375 C-70.58468693 104.37330428 -74.9159873 97.57971269 -81 90 C-81.96990973 88.65410058 -82.9305513 87.30138665 -83.875 85.9375 C-85.73736083 83.13403765 -85.73736083 83.13403765 -87.47265625 81.70703125 C-89.62157363 79.30530007 -90.44524548 76.76203413 -91.5625 73.75 C-91.97628906 72.65171875 -92.39007813 71.5534375 -92.81640625 70.421875 C-93.20699219 69.29265625 -93.59757812 68.1634375 -94 67 C-94.37382812 65.91976562 -94.74765625 64.83953125 -95.1328125 63.7265625 C-96.24028442 58.96742643 -96.32988926 54.4939918 -96.3125 49.625 C-96.33666992 48.28308594 -96.33666992 48.28308594 -96.36132812 46.9140625 C-96.36582064 40.73236467 -95.32207668 35.71588106 -93 30 C-92.5978125 28.98292969 -92.195625 27.96585938 -91.78125 26.91796875 C-85.41730539 13.35578192 -74.68693221 2.5801138 -60.8828125 -3.3359375 C-59 -4 -59 -4 -57 -4 C-57 -4.66 -57 -5.32 -57 -6 C-37.62283649 -12.73988296 -17.65165633 -9.67085427 0 0 Z " fill="#FAFBFB" transform="translate(229,105)"></path><path d="M0 0 C0 0.66 0 1.32 0 2 C0.721875 2.2475 1.44375 2.495 2.1875 2.75 C12.91014334 7.51561926 20.0896118 19.88012894 24.2578125 30.34375 C25.00850538 33.03044032 25.15075543 35.22610015 25 38 C25.66 38 26.32 38 27 38 C28.45109612 47.16632993 28.12868981 53.13837514 23 61 C21.92380034 57.77967947 21.96826428 54.78696801 22.06616211 51.41748047 C22.26253991 44.3918812 22.04483931 38.42087168 19 32 C18.47792969 30.86433594 17.95585937 29.72867188 17.41796875 28.55859375 C13.70492241 20.74068745 10.0915276 13.92706967 2.9375 8.75 C2.28652344 8.27046875 1.63554687 7.7909375 0.96484375 7.296875 C-0.96497914 6.02311516 -2.91086392 4.98640724 -5 4 C-5 3.34 -5 2.68 -5 2 C-24.72983239 -4.4099225 -41.14986386 -5.72126506 -61 1 C-61 1.66 -61 2.32 -61 3 C-62.94140625 4.26171875 -62.94140625 4.26171875 -65.5625 5.6875 C-77.41573221 12.63249239 -85.66399933 24.62720067 -89.53051758 37.80859375 C-92.22989046 50.40847467 -91.24670193 65.41322257 -84.52734375 76.41015625 C-82.06806744 80.07872209 -79.38652454 83.52330742 -76.60546875 86.953125 C-71.86700018 92.83058679 -67.83324735 98.67410157 -64.4375 105.4375 C-64.10306885 106.09959473 -63.7686377 106.76168945 -63.42407227 107.44384766 C-61.57742556 111.27900396 -60.47713024 114.77118816 -60 119 C-59.34 119 -58.68 119 -58 119 C-57.01 122.465 -57.01 122.465 -56 126 C-55.3965979 125.99555878 -54.7931958 125.99111755 -54.17150879 125.98654175 C-47.81081546 125.94180809 -41.45016781 125.91192928 -35.08935547 125.89013672 C-32.72507915 125.8801663 -30.36081487 125.86658511 -27.99658203 125.84912109 C-10.01662448 125.71976888 6.49284346 126.65312059 24 131 C25.43421831 131.32849309 26.86916031 131.65383729 28.3046875 131.9765625 C29.42532593 132.23107178 29.42532593 132.23107178 30.56860352 132.49072266 C32.01624907 132.81928197 33.46461027 133.14471135 34.91381836 133.46630859 C39.08656344 134.42859776 43.0136247 135.67837486 47.00268555 137.23291016 C50.296724 138.49802063 53.64881421 139.58487326 57 140.6875 C57.67933594 140.91244141 58.35867188 141.13738281 59.05859375 141.36914062 C60.70526476 141.91416554 62.35256455 142.45729014 64 143 C64 143.66 64 144.32 64 145 C64.82371094 145.08378906 65.64742187 145.16757813 66.49609375 145.25390625 C70.79167395 146.16857271 74.20091531 147.90034281 78.0625 149.9375 C84.40788338 153.23503219 84.40788338 153.23503219 91 156 C91 156.66 91 157.32 91 158 C91.928125 158.28875 92.85625 158.5775 93.8125 158.875 C97 160 97 160 100 162 C100 162.99 100 163.98 100 165 C96.45756548 163.63408831 93.07372071 162.09068516 89.6875 160.375 C88.80449219 159.92898438 87.92148437 159.48296875 87.01171875 159.0234375 C86.34785156 158.68570313 85.68398438 158.34796875 85 158 C85 157.34 85 156.68 85 156 C83.783125 155.62875 82.56625 155.2575 81.3125 154.875 C76.06390959 153.13924569 71.16810674 150.78798932 66.17578125 148.4296875 C62.1837744 146.63254788 58.18426818 145.2765564 54 144 C54 143.34 54 142.68 54 142 C52.99710938 141.87367188 51.99421875 141.74734375 50.9609375 141.6171875 C47.09884834 141.06379614 43.39300718 140.14402081 39.625 139.125 C38.96218018 138.94718994 38.29936035 138.76937988 37.61645508 138.58618164 C34.24736394 137.66898749 30.95656583 136.66097216 27.6875 135.4375 C14.47764905 130.84167733 -0.88052986 129.8696199 -14.7578125 129.796875 C-15.6562085 129.79004196 -16.55460449 129.78320892 -17.48022461 129.77616882 C-20.36185521 129.75921092 -23.24332248 129.75284792 -26.125 129.75 C-27.10643982 129.74799591 -28.08787964 129.74599182 -29.09906006 129.743927 C-43.14742438 129.73689263 -56.75497734 130.29575546 -70.63378906 132.63623047 C-74.73665915 133.26698536 -78.86648217 133.63205221 -83 134 C-83 134.66 -83 135.32 -83 136 C-84.90845703 136.4021875 -84.90845703 136.4021875 -86.85546875 136.8125 C-97.73170537 139.20268694 -108.00285573 142.22818087 -118.33276367 146.40820312 C-119.16396729 146.74400391 -119.9951709 147.07980469 -120.8515625 147.42578125 C-121.58197754 147.72911377 -122.31239258 148.03244629 -123.06494141 148.3449707 C-125 149 -125 149 -128 149 C-128 149.66 -128 150.32 -128 151 C-129.93467942 151.83986084 -131.87285129 152.67168027 -133.8125 153.5 C-134.89144531 153.9640625 -135.97039062 154.428125 -137.08203125 154.90625 C-140 156 -140 156 -143 156 C-143 156.66 -143 157.32 -143 158 C-144.78953185 158.83790789 -146.58169695 159.67019396 -148.375 160.5 C-149.37273437 160.9640625 -150.37046875 161.428125 -151.3984375 161.90625 C-154 163 -154 163 -156 163 C-156 163.66 -156 164.32 -156 165 C-156.99 165 -157.98 165 -159 165 C-158.505 163.02 -158.505 163.02 -158 161 C-154.535 160.01 -154.535 160.01 -151 159 C-151 158.34 -151 157.68 -151 157 C-149.23244474 156.15973604 -147.46082737 155.32801278 -145.6875 154.5 C-144.70136719 154.0359375 -143.71523437 153.571875 -142.69921875 153.09375 C-140 152 -140 152 -137 152 C-137 151.34 -137 150.68 -137 150 C-134.89828133 149.1605118 -132.79353375 148.32860344 -130.6875 147.5 C-129.51574219 147.0359375 -128.34398437 146.571875 -127.13671875 146.09375 C-124 145 -124 145 -121 145 C-121 144.34 -121 143.68 -121 143 C-118.41877492 142.15960114 -115.83536099 141.32749444 -113.25 140.5 C-112.52039063 140.26152344 -111.79078125 140.02304688 -111.0390625 139.77734375 C-110.33007812 139.55175781 -109.62109375 139.32617188 -108.890625 139.09375 C-108.24125977 138.88427734 -107.59189453 138.67480469 -106.92285156 138.45898438 C-105 138 -105 138 -101 138 C-101 137.34 -101 136.68 -101 136 C-100.22398437 135.82871582 -99.44796875 135.65743164 -98.6484375 135.48095703 C-95.09870594 134.69677558 -91.5493511 133.91090163 -88 133.125 C-86.77925781 132.85558594 -85.55851562 132.58617187 -84.30078125 132.30859375 C-76.78624481 130.64646883 -76.78624481 130.64646883 -69.3125 128.8125 C-66.37594852 128.09221379 -64.00169496 127.81239407 -61 128 C-61.2165625 127.38511719 -61.433125 126.77023438 -61.65625 126.13671875 C-61.9346875 125.32847656 -62.213125 124.52023438 -62.5 123.6875 C-62.7784375 122.88699219 -63.056875 122.08648437 -63.34375 121.26171875 C-64 119 -64 119 -64 116 C-64.66 116 -65.32 116 -66 116 C-66.32871094 115.12859375 -66.65742188 114.2571875 -66.99609375 113.359375 C-70.58468693 104.37330428 -74.9159873 97.57971269 -81 90 C-81.96990973 88.65410058 -82.9305513 87.30138665 -83.875 85.9375 C-85.73736083 83.13403765 -85.73736083 83.13403765 -87.47265625 81.70703125 C-89.62157363 79.30530007 -90.44524548 76.76203413 -91.5625 73.75 C-91.97628906 72.65171875 -92.39007813 71.5534375 -92.81640625 70.421875 C-93.20699219 69.29265625 -93.59757812 68.1634375 -94 67 C-94.37382812 65.91976562 -94.74765625 64.83953125 -95.1328125 63.7265625 C-96.24028442 58.96742643 -96.32988926 54.4939918 -96.3125 49.625 C-96.33666992 48.28308594 -96.33666992 48.28308594 -96.36132812 46.9140625 C-96.36582064 40.73236467 -95.32207668 35.71588106 -93 30 C-92.5978125 28.98292969 -92.195625 27.96585938 -91.78125 26.91796875 C-85.41730539 13.35578192 -74.68693221 2.5801138 -60.8828125 -3.3359375 C-59 -4 -59 -4 -57 -4 C-57 -4.66 -57 -5.32 -57 -6 C-37.62283649 -12.73988296 -17.65165633 -9.67085427 0 0 Z " fill="#171717" transform="translate(229,105)"></path><path d="M0 0 C4.01208627 -0.47762932 5.71549035 -0.17851586 9.1875 2 C12.61301488 5.11982589 13.66832028 8.63504979 15 13 C16.36125 13.061875 16.36125 13.061875 17.75 13.125 C23.65701542 13.91666186 28.82260559 17.22001975 34 20 C34 20.66 34 21.32 34 22 C29.38 22.33 24.76 22.66 20 23 C22.14404267 27.84394826 24.30388404 32.67942347 26.5 37.5 C26.91636719 38.41652344 27.33273438 39.33304688 27.76171875 40.27734375 C28.57367877 42.06263124 29.3886788 43.84653991 30.20703125 45.62890625 C30.57183594 46.43199219 30.93664062 47.23507813 31.3125 48.0625 C31.80169922 49.13177734 31.80169922 49.13177734 32.30078125 50.22265625 C33 52 33 52 33 54 C37.29 54 41.58 54 46 54 C42.32645354 57.67354646 40.09483857 59.16335312 35.5 61.25 C33.81390625 62.03117187 33.81390625 62.03117187 32.09375 62.828125 C29 64 29 64 25 64 C21.91708873 61.78932704 20.9577449 58.8365589 19.625 55.375 C17.46761634 49.98481955 14.96048619 44.98873418 12 40 C7.18437456 47.91659637 2.57431698 55.94270055 -2 64 C-2.99 63.67 -3.98 63.34 -5 63 C-4.43546092 57.00772376 -3.15211183 51.74033104 -1.1875 46.0625 C-0.92267822 45.26908203 -0.65785645 44.47566406 -0.38500977 43.65820312 C1.00064594 39.58299178 2.52264607 35.80092782 4.5625 32 C6.12396416 28.65678213 6.03063437 26.78682177 5 23.25 C4.351202 21.49329695 3.68268452 19.74381372 3 18 C2.22870774 15.73631003 1.4792382 13.46508549 0.75 11.1875 C0.39421875 10.12917969 0.0384375 9.07085937 -0.328125 7.98046875 C-1.02766281 4.87728648 -0.87257848 3.02605742 0 0 Z " fill="#4776AB" transform="translate(190,164)"></path><path d="M0 0 C0.90105469 0.02707031 1.80210937 0.05414063 2.73046875 0.08203125 C3.76107422 0.13423828 3.76107422 0.13423828 4.8125 0.1875 C4.8125 0.8475 4.8125 1.5075 4.8125 2.1875 C5.451875 2.496875 6.09125 2.80625 6.75 3.125 C8.8125 4.1875 8.8125 4.1875 9.8125 5.1875 C10.64434281 11.94919371 10.12149563 16.95099723 6.296875 22.62890625 C4.06944303 24.96770982 2.06045668 26.11437754 -1.1875 26.3046875 C-4.73286136 25.8753664 -6.73386317 25.5364514 -9.625 23.3125 C-12.77743391 19.02518988 -12.83580493 14.31261331 -12.1875 9.1875 C-10.375 5.8125 -10.375 5.8125 -8.1875 3.1875 C-7.754375 2.64222656 -7.32125 2.09695312 -6.875 1.53515625 C-4.53573278 -0.33300854 -2.94992017 -0.11493195 0 0 Z " fill="#111111" transform="translate(259.1875,247.8125)"></path><path d="M0 0 C2.31 0 4.62 0 7 0 C8.88849677 7.95735532 9.55348122 15.84515697 10 24 C8.02 24 6.04 24 4 24 C3.67 21.69 3.34 19.38 3 17 C2.34 19.31 1.68 21.62 1 24 C0.34 24 -0.32 24 -1 24 C-1.99 22.02 -2.98 20.04 -4 18 C-4 20.64 -4 23.28 -4 26 C-5.65 26.33 -7.3 26.66 -9 27 C-11.26200586 19.01459326 -13.41640925 11.31616812 -14 3 C-11.1875 2.3125 -11.1875 2.3125 -8 2 C-5.11657575 3.92228283 -3.68852175 7.02498549 -2 10 C-1.34 6.7 -0.68 3.4 0 0 Z " fill="#4776AB" transform="translate(164,243)"></path><path d="M0 0 C13.31049251 -0.4929812 13.31049251 -0.4929812 16.42578125 1.734375 C18.95043122 5.36786627 18.70040359 8.7339054 18 13 C17.484375 13.66 16.96875 14.32 16.4375 15 C14.26768299 18.01887584 15.1428996 20.61933067 15.67578125 24.171875 C15.78277344 24.77515625 15.88976562 25.3784375 16 26 C10.25 24.375 10.25 24.375 8 21 C8 20.01 8 19.02 8 18 C7.34 18 6.68 18 6 18 C6 20.31 6 22.62 6 25 C4.02 25 2.04 25 0 25 C0 16.75 0 8.5 0 0 Z " fill="#5882B3" transform="translate(196,240)"></path><path d="M0 0 C10.01533226 0.47218688 19.57103867 1.13003769 29.25 3.9453125 C33.99486401 5.2798055 38.7828482 6.35371684 43.59570312 7.41210938 C47.88444211 8.3898328 51.91961923 9.634071 56.01586914 11.23510742 C59.30427313 12.50280395 62.65296334 13.58623844 66 14.6875 C67.01900391 15.02491211 67.01900391 15.02491211 68.05859375 15.36914062 C69.70526476 15.91416554 71.35256455 16.45729014 73 17 C73 17.66 73 18.32 73 19 C74.23556641 19.12568359 74.23556641 19.12568359 75.49609375 19.25390625 C79.79167395 20.16857271 83.20091531 21.90034281 87.0625 23.9375 C93.40788338 27.23503219 93.40788338 27.23503219 100 30 C100 30.66 100 31.32 100 32 C101.3921875 32.433125 101.3921875 32.433125 102.8125 32.875 C106 34 106 34 109 36 C109 36.99 109 37.98 109 39 C105.45756548 37.63408831 102.07372071 36.09068516 98.6875 34.375 C97.80449219 33.92898438 96.92148437 33.48296875 96.01171875 33.0234375 C95.34785156 32.68570313 94.68398438 32.34796875 94 32 C94 31.34 94 30.68 94 30 C92.783125 29.62875 91.56625 29.2575 90.3125 28.875 C85.06390959 27.13924569 80.16810674 24.78798932 75.17578125 22.4296875 C71.1837744 20.63254788 67.18426818 19.2765564 63 18 C63 17.34 63 16.68 63 16 C61.49566406 15.81050781 61.49566406 15.81050781 59.9609375 15.6171875 C56.09884834 15.06379614 52.39300718 14.14402081 48.625 13.125 C47.96218018 12.94718994 47.29936035 12.76937988 46.61645508 12.58618164 C43.24736394 11.66898749 39.95656583 10.66097216 36.6875 9.4375 C23.31420526 4.78481381 7.87375874 3.95416326 -6.1640625 3.68359375 C-7.08214691 3.66281265 -8.00023132 3.64203156 -8.94613647 3.62062073 C-11.83902516 3.55596044 -14.73199364 3.49663454 -17.625 3.4375 C-19.60287238 3.39423505 -21.58073709 3.35061843 -23.55859375 3.30664062 C-28.37231696 3.20036656 -33.18611929 3.09887181 -38 3 C-38 2.67 -38 2.34 -38 2 C-25.46 1.67 -12.92 1.34 0 1 C0 0.67 0 0.34 0 0 Z " fill="#1C1C1C" transform="translate(220,231)"></path><path d="M0 0 C3.3 0 6.6 0 10 0 C11.13764351 4.26616316 12 7.56486311 12 12 C12.66 12 13.32 12 14 12 C14.66 16.29 15.32 20.58 16 25 C14.02 25 12.04 25 10 25 C9.67 23.35 9.34 21.7 9 20 C7.02 20 5.04 20 3 20 C3 21.98 3 23.96 3 26 C1.02 26 -0.96 26 -3 26 C-2.88529624 22.97846145 -2.7585615 19.95821599 -2.625 16.9375 C-2.5940625 16.08994141 -2.563125 15.24238281 -2.53125 14.36914062 C-2.29468217 9.26321829 -1.61955494 4.85208127 0 0 Z " fill="#4C79AE" transform="translate(179,241)"></path><path d="M0 0 C3.9492568 0.55105909 7.34920174 1.38935371 11 3 C10.67 5.31 10.34 7.62 10 10 C9.34 10 8.68 10 8 10 C7.896875 11.134375 7.79375 12.26875 7.6875 13.4375 C7.10889499 18.19397351 5.64926303 22.51898346 4 27 C1.5625 26.625 1.5625 26.625 -1 26 C-2.24546405 23.50907189 -1.7767578 22.58919267 -1 20 C-3.475 19.01 -3.475 19.01 -6 18 C-6.33 19.32 -6.66 20.64 -7 22 C-8.65 21.67 -10.3 21.34 -12 21 C-12.33 20.01 -12.66 19.02 -13 18 C-11.49534919 15.56234722 -9.9698117 13.33913598 -8.25 11.0625 C-7.79367187 10.44181641 -7.33734375 9.82113281 -6.8671875 9.18164062 C-5.58842262 7.44643799 -4.29708221 5.72153391 -3 4 C-2.39671875 3.19433594 -1.7934375 2.38867188 -1.171875 1.55859375 C-0.78515625 1.04425781 -0.3984375 0.52992188 0 0 Z " fill="#111111" transform="translate(295,263)"></path><path d="M0 0 C4.10357833 1.47109412 7.31253508 3.18757016 9.3125 7.1875 C9.89134232 14.24937625 9.89134232 14.24937625 7.5 18.125 C4.60781575 20.85191658 2.82531294 21.15952839 -1.125 21.375 C-6.12146226 21.1120283 -6.12146226 21.1120283 -8.6875 19.1875 C-10.91710632 16.4004921 -11.66090382 14.31806306 -12.375 10.8125 C-11.48194131 6.10364511 -9.61329352 4.35762477 -5.9140625 1.44921875 C-3.6875 0.1875 -3.6875 0.1875 0 0 Z " fill="#4574AA" transform="translate(196.6875,140.8125)"></path><path d="M0 0 C0.23710693 0.62567871 0.47421387 1.25135742 0.71850586 1.89599609 C1.7904212 4.72274269 2.86394047 7.54887746 3.9375 10.375 C4.49727539 11.85226562 4.49727539 11.85226562 5.06835938 13.359375 C5.60493164 14.77089844 5.60493164 14.77089844 6.15234375 16.2109375 C6.48226318 17.08024902 6.81218262 17.94956055 7.15209961 18.84521484 C7.96386752 21.00160483 7.96386752 21.00160483 9 23 C7.02 23.66 5.04 24.32 3 25 C1.68 22.36 0.36 19.72 -1 17 C-2.65 17 -4.3 17 -6 17 C-5.71125 17.54269531 -5.4225 18.08539063 -5.125 18.64453125 C-4.75375 19.35996094 -4.3825 20.07539063 -4 20.8125 C-3.443125 21.87404297 -3.443125 21.87404297 -2.875 22.95703125 C-2 25 -2 25 -2 28 C-3.65 28.66 -5.3 29.32 -7 30 C-8.00484204 28.04414675 -9.00373805 26.08523763 -10 24.125 C-10.556875 23.03445313 -11.11375 21.94390625 -11.6875 20.8203125 C-13 18 -13 18 -13 16 C-13.66 16 -14.32 16 -15 16 C-15.99 13.36 -16.98 10.72 -18 8 C-16.1875 6.4375 -16.1875 6.4375 -14 5 C-13.01 5.33 -12.02 5.66 -11 6 C-9.3125 9.5625 -9.3125 9.5625 -8 13 C-6.68 12.67 -5.36 12.34 -4 12 C-4.309375 11.0925 -4.61875 10.185 -4.9375 9.25 C-5.7272263 6.83436662 -6.42949297 4.47219715 -7 2 C-4.35261084 0.5393715 -3.10551666 0 0 0 Z " fill="#0E0E0E" transform="translate(114,258)"></path><path d="M0 0 C1 1 1 1 1.0625 4.0625 C1.041875 5.031875 1.02125 6.00125 1 7 C-0.98 7 -2.96 7 -5 7 C-5 8.32 -5 9.64 -5 11 C-3.9275 11.0825 -2.855 11.165 -1.75 11.25 C2 12 2 12 4.4375 13.625 C6.66668232 17.01335713 6.70840345 19.03294066 6 23 C2.84733442 25.92747518 0.92396017 26.93155851 -3.375 27.25 C-4.24125 27.1675 -5.1075 27.085 -6 27 C-6.33 25.35 -6.66 23.7 -7 22 C-4.69 22 -2.38 22 0 22 C-0.33 20.68 -0.66 19.36 -1 18 C-2.258125 17.896875 -3.51625 17.79375 -4.8125 17.6875 C-7.21329012 17.36513242 -8.80394839 17.10751218 -10.9375 15.9375 C-12.62660598 12.85736557 -13.14825923 9.50174186 -13 6 C-12.34 5.01 -11.68 4.02 -11 3 C-10.34 3 -9.68 3 -9 3 C-9 2.34 -9 1.68 -9 1 C-5.78419562 -0.07193479 -3.36629251 -0.14636054 0 0 Z " fill="#527EB0" transform="translate(146,247)"></path><path d="M0 0 C0 1.65 0 3.3 0 5 C-1.65 5.33 -3.3 5.66 -5 6 C-4.67 7.32 -4.34 8.64 -4 10 C-0.535 9.505 -0.535 9.505 3 9 C3 10.65 3 12.3 3 14 C1.35 14.33 -0.3 14.66 -2 15 C-1.34 16.65 -0.68 18.3 0 20 C1.98 19.67 3.96 19.34 6 19 C6.33 20.65 6.66 22.3 7 24 C5.75336669 24.50833591 4.50250613 25.00631145 3.25 25.5 C2.55390625 25.7784375 1.8578125 26.056875 1.140625 26.34375 C-1 27 -1 27 -5 27 C-13 7.38297872 -13 7.38297872 -13 4 C-12.01 4 -11.02 4 -10 4 C-10 3.34 -10 2.68 -10 2 C-3.375 0 -3.375 0 0 0 Z " fill="#161616" transform="translate(130,252)"></path><path d="M0 0 C4.95 0.99 4.95 0.99 10 2 C10 2.66 10 3.32 10 4 C10.825 4.061875 11.65 4.12375 12.5 4.1875 C23.04023473 6.63434021 31.63117692 15.5999765 37.4609375 24.3046875 C39.94525827 28.65540153 41.57649028 33.20904794 43 38 C43.19722656 38.65742188 43.39445312 39.31484375 43.59765625 39.9921875 C44.09006302 42.44944072 44.09544824 44.74593356 44.0625 47.25 C44.05347656 48.14203125 44.04445312 49.0340625 44.03515625 49.953125 C44.02355469 50.62859375 44.01195312 51.3040625 44 52 C41.27797897 49.27797897 40.81199146 46.17200455 39.8125 42.5625 C36.94012544 32.81021915 32.43988052 24.98897867 25 18 C25 17.34 25 16.68 25 16 C24.4121875 15.72671875 23.824375 15.4534375 23.21875 15.171875 C21.06518444 14.0344284 19.3823156 12.78557325 17.5 11.25 C13.13802061 7.88575125 8.42087483 5.61522583 3.44140625 3.296875 C1 2 1 2 0 0 Z " fill="#86A8C9" transform="translate(204,104)"></path><path d="M0 0 C2.97 0.99 5.94 1.98 9 3 C9 3.66 9 4.32 9 5 C10.2065625 5.2475 10.2065625 5.2475 11.4375 5.5 C23.34706473 10.51455357 30.06520354 22.65927907 35 34 C37.81430888 41.77285309 37.17828619 49.83845422 37 58 C36.67 58 36.34 58 36 58 C35.67 53.38 35.34 48.76 35 44 C34.67 48.29 34.34 52.58 34 57 C33.34 57 32.68 57 32 57 C31.505 53.535 31.505 53.535 31 50 C31.33 50 31.66 50 32 50 C32.87852958 38.79874785 28.80495691 28.74161566 22 20 C21.21625 18.948125 20.4325 17.89625 19.625 16.8125 C13.62882778 10.38802976 7.25983442 6.87740133 -1 4 C-0.67 2.68 -0.34 1.36 0 0 Z " fill="#E4E6E9" transform="translate(215,104)"></path><path d="M0 0 C-3.60948574 2.11242168 -7.39438051 2.79444033 -11.4375 3.625 C-19.66055369 5.41111783 -27.33308662 8.22287119 -35.13061523 11.35791016 C-35.98212158 11.69870605 -36.83362793 12.03950195 -37.7109375 12.390625 C-38.46681152 12.70032227 -39.22268555 13.01001953 -40.00146484 13.32910156 C-42 14 -42 14 -45 14 C-45 14.66 -45 15.32 -45 16 C-46.93467942 16.83986084 -48.87285129 17.67168027 -50.8125 18.5 C-51.89144531 18.9640625 -52.97039062 19.428125 -54.08203125 19.90625 C-57 21 -57 21 -60 21 C-60 21.66 -60 22.32 -60 23 C-61.78953185 23.83790789 -63.58169695 24.67019396 -65.375 25.5 C-66.37273437 25.9640625 -67.37046875 26.428125 -68.3984375 26.90625 C-71 28 -71 28 -73 28 C-73 28.66 -73 29.32 -73 30 C-73.99 30 -74.98 30 -76 30 C-75.67 28.68 -75.34 27.36 -75 26 C-72.69 25.34 -70.38 24.68 -68 24 C-68 23.34 -68 22.68 -68 22 C-66.23244474 21.15973604 -64.46082737 20.32801278 -62.6875 19.5 C-61.70136719 19.0359375 -60.71523437 18.571875 -59.69921875 18.09375 C-57 17 -57 17 -54 17 C-54 16.34 -54 15.68 -54 15 C-51.89828133 14.1605118 -49.79353375 13.32860344 -47.6875 12.5 C-46.51574219 12.0359375 -45.34398437 11.571875 -44.13671875 11.09375 C-41 10 -41 10 -38 10 C-38 9.34 -38 8.68 -38 8 C-35.41877492 7.15960114 -32.83536099 6.32749444 -30.25 5.5 C-29.52039063 5.26152344 -28.79078125 5.02304688 -28.0390625 4.77734375 C-27.33007812 4.55175781 -26.62109375 4.32617188 -25.890625 4.09375 C-25.24125977 3.88427734 -24.59189453 3.67480469 -23.92285156 3.45898438 C-22 3 -22 3 -18 3 C-18 2.34 -18 1.68 -18 1 C-15.94248866 0.43968212 -13.87868424 -0.09756118 -11.8125 -0.625 C-10.66394531 -0.92664063 -9.51539063 -1.22828125 -8.33203125 -1.5390625 C-4.7631009 -2.03277151 -3.14597529 -1.64704544 0 0 Z " fill="#2B2B2B" transform="translate(146,240)"></path><path d="M0 0 C1.89575251 -0.02721176 3.79161979 -0.04649136 5.6875 -0.0625 C6.74324219 -0.07410156 7.79898438 -0.08570313 8.88671875 -0.09765625 C11.72410262 -0.00865425 14.2438919 0.35060162 17 1 C17 2.65 17 4.3 17 6 C15.02 6 13.04 6 11 6 C11.01160156 6.85722656 11.02320313 7.71445313 11.03515625 8.59765625 C11.0818041 14.50860552 11.08249916 20.18156704 10 26 C8.00045254 26.04254356 5.99958364 26.04080783 4 26 C3.67 25.67 3.34 25.34 3 25 C3.06560947 23.32994067 3.20412275 21.66258947 3.375 20 C3.47425781 19.01386719 3.57351562 18.02773438 3.67578125 17.01171875 C3.78277344 16.01785156 3.88976562 15.02398437 4 14 C4.09667969 13.09894531 4.19335938 12.19789063 4.29296875 11.26953125 C4.52229775 9.17898137 4.76023523 7.08937872 5 5 C3.35 5 1.7 5 0 5 C0 3.35 0 1.7 0 0 Z " fill="#517DB0" transform="translate(216,241)"></path><path d="M0 0 C0.33 0.99 0.66 1.98 1 3 C-0.65 3.33 -2.3 3.66 -4 4 C-3.57847656 4.74765625 -3.15695313 5.4953125 -2.72265625 6.265625 C-2.17480469 7.25046875 -1.62695312 8.2353125 -1.0625 9.25 C-0.51722656 10.22453125 0.02804688 11.1990625 0.58984375 12.203125 C1.76610835 14.53610409 2.52101691 16.45350762 3 19 C3.66 19 4.32 19 5 19 C5.33 20.32 5.66 21.64 6 23 C3 25 3 25 0 25 C-1.52463265 22.89398991 -2.83380715 20.86685132 -4.125 18.625 C-4.48464844 18.02171875 -4.84429687 17.4184375 -5.21484375 16.796875 C-6.54139098 14.56112124 -7.83710606 12.32578789 -9 10 C-10.98 10.33 -12.96 10.66 -15 11 C-15.66 9.68 -16.32 8.36 -17 7 C-15.37615858 5.85252535 -13.75088944 4.7070709 -12.125 3.5625 C-11.22007813 2.92441406 -10.31515625 2.28632813 -9.3828125 1.62890625 C-5.63885032 -0.93049085 -4.38888642 -1.0394731 0 0 Z " fill="#141414" transform="translate(95,269)"></path><path d="M0 0 C0 0.66 0 1.32 0 2 C1.65 2.33 3.3 2.66 5 3 C5 7 5 7 4 9 C3.01 8.67 2.02 8.34 1 8 C1 7.34 1 6.68 1 6 C-3.39314793 7.01160848 -3.39314793 7.01160848 -6.375 10.125 C-6.58125 10.74375 -6.7875 11.3625 -7 12 C-7.66 12 -8.32 12 -9 12 C-8.67 14.64 -8.34 17.28 -8 20 C-5.525 20.99 -5.525 20.99 -3 22 C-3.33 23.32 -3.66 24.64 -4 26 C-10.47948926 25.51098194 -10.47948926 25.51098194 -12.70703125 23.32421875 C-14.33273028 20.40188968 -14.40020708 18.39403609 -14.375 15.0625 C-14.38273437 14.04285156 -14.39046875 13.02320313 -14.3984375 11.97265625 C-13.82404196 7.687215 -11.8101977 5.07061839 -9.25 1.6875 C-6.13435501 -0.64923374 -3.79086283 -0.29160483 0 0 Z " fill="#0F0F0F" transform="translate(284,255)"></path><path d="M0 0 C1.98 0.66 3.96 1.32 6 2 C5.35429235 5.75041158 3.64437559 8.34905316 1.5625 11.5 C-0.48052953 14.60506366 -2.41959633 17.63270775 -4 21 C-1.525 21.99 -1.525 21.99 1 23 C0.34 24.32 -0.32 25.64 -1 27 C-4.99455527 26.38545304 -7.74466336 24.29353263 -11 22 C-10.49844814 16.67501327 -7.65564273 12.64794605 -4.9375 8.1875 C-4.46505859 7.39923828 -3.99261719 6.61097656 -3.50585938 5.79882812 C-2.34368685 3.86187392 -1.17495583 1.92921705 0 0 Z " fill="#101010" transform="translate(312,271)"></path><path d="M0 0 C1.65 0 3.3 0 5 0 C5.43230491 7.34918342 3.81774185 13.90215087 2 21 C3.98 21 5.96 21 8 21 C8 22.65 8 24.3 8 26 C4.04 25.67 0.08 25.34 -4 25 C-4.42289188 16.82409041 -3.71180293 7.42360586 0 0 Z " fill="#181818" transform="translate(237,244)"></path><path d="M0 0 C1.09447402 3.28342205 0.89228858 4.08554442 0.0625 7.3125 C-2.00349053 17.01982536 -1.71340975 26.35257268 1.34375 35.79296875 C2 38 2 38 2 41 C2.66 41 3.32 41 4 41 C7.22265625 46.2734375 7.22265625 46.2734375 8 48 C7.67 48.66 7.34 49.32 7 50 C-4.35119012 38.01110257 -6.37701798 27.08610045 -6 11 C-6.66 11.66 -7.32 12.32 -8 13 C-7.25 5.375 -7.25 5.375 -5 2 C-5.33 4.31 -5.66 6.62 -6 9 C-5.34 9 -4.68 9 -4 9 C-3.71125 8.2575 -3.4225 7.515 -3.125 6.75 C-2.17697356 4.43260203 -1.15154089 2.22082885 0 0 Z " fill="#7DA2C5" transform="translate(146,136)"></path><path d="M0 0 C3.96 0 7.92 0 12 0 C10 1.33333333 8 2.66666667 6 4 C5.52312697 6.13253645 5.52312697 6.13253645 5.625 8.5 C5.61726562 9.2940625 5.60953125 10.088125 5.6015625 10.90625 C5.73304688 11.5971875 5.86453125 12.288125 6 13 C6.99 13.66 7.98 14.32 9 15 C7.68 15.33 6.36 15.66 5 16 C5 18.64 5 21.28 5 24 C3.35 24 1.7 24 0 24 C0 16.08 0 8.16 0 0 Z " fill="#4071A9" transform="translate(197,241)"></path><path d="M0 0 C0 0.66 0 1.32 0 2 C1.23556641 2.12568359 1.23556641 2.12568359 2.49609375 2.25390625 C6.79167395 3.16857271 10.20091531 4.90034281 14.0625 6.9375 C20.40788338 10.23503219 20.40788338 10.23503219 27 13 C27 13.66 27 14.32 27 15 C27.928125 15.28875 28.85625 15.5775 29.8125 15.875 C33 17 33 17 36 19 C36 19.99 36 20.98 36 22 C32.45756548 20.63408831 29.07372071 19.09068516 25.6875 17.375 C24.80449219 16.92898438 23.92148437 16.48296875 23.01171875 16.0234375 C22.34785156 15.68570312 21.68398438 15.34796875 21 15 C21 14.34 21 13.68 21 13 C19.783125 12.62875 18.56625 12.2575 17.3125 11.875 C12.06390959 10.13924569 7.16810674 7.78798932 2.17578125 5.4296875 C-1.8162256 3.63254788 -5.81573182 2.2765564 -10 1 C-10 0.67 -10 0.34 -10 0 C-6.30458414 -0.95024979 -3.69541586 -0.95024979 0 0 Z " fill="#292929" transform="translate(293,248)"></path><path d="M0 0 C4.875 0.875 4.875 0.875 6 2 C6.28108858 6.21632866 6.39815296 9.01509531 4.8125 12.9375 C3 15 3 15 0.4375 15.9375 C-0.366875 15.958125 -1.17125 15.97875 -2 16 C-4 14 -4 14 -4.375 10.8125 C-3.91484377 6.13424503 -2.54430059 3.89596028 0 0 Z " fill="#F5F5F5" transform="translate(257,253)"></path><path d="M0 0 C5.4378646 1.70509314 6.95074323 4.3341277 9.640625 9.15234375 C13.36383909 16.95183533 14.50258232 24.41887218 14 33 C11.27861652 30.27861652 10.81005556 27.17207059 9.8125 23.5625 C7.91560671 17.01641613 5.40166108 11.79034058 1.35546875 6.234375 C0 4 0 4 0 0 Z " fill="#80A3C6" transform="translate(234,123)"></path><path d="M0 0 C2.42303127 2.42303127 2.49543134 3.67350177 3.0703125 7.0078125 C3.24433594 7.99394531 3.41835937 8.98007813 3.59765625 9.99609375 C3.77167969 11.02863281 3.94570312 12.06117188 4.125 13.125 C4.30675781 14.16527344 4.48851562 15.20554687 4.67578125 16.27734375 C5.12429883 18.85041828 5.56538056 21.42454771 6 24 C5.01 24 4.02 24 3 24 C2.67 21.03 2.34 18.06 2 15 C-1.3 14.34 -4.6 13.68 -8 13 C-8.33 11.35 -8.66 9.7 -9 8 C-8 7 -8 7 -5.4375 6.9375 C-4.2309375 6.9684375 -4.2309375 6.9684375 -3 7 C-2.67 6.01 -2.34 5.02 -2 4 C-1.34 4 -0.68 4 0 4 C0 2.68 0 1.36 0 0 Z " fill="#E9EEF4" transform="translate(149,246)"></path><path d="M0 0 C8.8150919 0.41559987 17.39602581 0.86968908 26 3 C25.01879883 4.54833984 25.01879883 4.54833984 23 6 C20.13269229 5.90422593 17.52200764 5.64529224 14.69921875 5.2265625 C3.73555626 3.83475177 -7.1478186 3.55917055 -18.1875 3.375 C-20.1243637 3.3366752 -22.061213 3.29761604 -23.99804688 3.2578125 C-28.66524304 3.16345362 -33.33251757 3.07887619 -38 3 C-38 2.67 -38 2.34 -38 2 C-25.46 1.67 -12.92 1.34 0 1 C0 0.67 0 0.34 0 0 Z " fill="#555555" transform="translate(220,231)"></path><path d="M0 0 C1.30623322 -0.00287018 1.30623322 -0.00287018 2.63885498 -0.00579834 C4.46757295 -0.00715225 6.29630079 -0.00351164 8.125 0.00488281 C10.92730084 0.01564584 13.72896821 0.00493406 16.53125 -0.0078125 C18.31250141 -0.00649178 20.09375243 -0.0039312 21.875 0 C22.71250793 -0.00404846 23.55001587 -0.00809692 24.41290283 -0.01226807 C28.33987139 0.01955271 30.33166794 0.03882029 33.671875 2.265625 C17.171875 2.595625 0.671875 2.925625 -16.328125 3.265625 C-16.328125 2.935625 -16.328125 2.605625 -16.328125 2.265625 C-10.75803559 0.38779439 -5.85587943 -0.0285833 0 0 Z " fill="#0E0E0E" transform="translate(189.328125,230.734375)"></path><path d="M0 0 C1.08557983 3.2567395 0.91335726 4.09967418 0.125 7.3125 C-1.30174269 13.81960351 -1.6365349 20.36197955 -2 27 C-2.33 27 -2.66 27 -3 27 C-3 21.72 -3 16.44 -3 11 C-3.66 15.95 -4.32 20.9 -5 26 C-5.33 26 -5.66 26 -6 26 C-6 21.05 -6 16.1 -6 11 C-6.66 11.66 -7.32 12.32 -8 13 C-7.25 5.375 -7.25 5.375 -5 2 C-5.33 4.31 -5.66 6.62 -6 9 C-5.34 9 -4.68 9 -4 9 C-3.71125 8.2575 -3.4225 7.515 -3.125 6.75 C-2.17697356 4.43260203 -1.15154089 2.22082885 0 0 Z " fill="#AABDD1" transform="translate(146,136)"></path><path d="M0 0 C4.67948398 -0.27771418 7.67583336 0.45162603 11.875 2.5 C13.32519531 3.19609375 13.32519531 3.19609375 14.8046875 3.90625 C15.52914062 4.2671875 16.25359375 4.628125 17 5 C16.67 5.66 16.34 6.32 16 7 C9.07 6.505 9.07 6.505 2 6 C1.34 4.02 0.68 2.04 0 0 Z " fill="#3C6EA7" transform="translate(207,179)"></path><path d="M0 0 C1.32 0 2.64 0 4 0 C5.14982602 4.09003859 5.11094256 8.03177051 5.0625 12.25 C5.05798828 12.99507812 5.05347656 13.74015625 5.04882812 14.5078125 C5.03709246 16.3385764 5.0191585 18.16929873 5 20 C4.67 20 4.34 20 4 20 C3.67 15.38 3.34 10.76 3 6 C2.67 10.29 2.34 14.58 2 19 C1.34 19 0.68 19 0 19 C-0.33 16.69 -0.66 14.38 -1 12 C-0.67 12 -0.34 12 0 12 C0 8.04 0 4.08 0 0 Z " fill="#D9DCDF" transform="translate(247,142)"></path><path d="M0 0 C1.66611905 -0.042721 3.33382885 -0.04063832 5 0 C6 1 6 1 6.1875 3.9375 C6 7 6 7 4 9 C2.68 9 1.36 9 0 9 C0 6.03 0 3.06 0 0 Z " fill="#DDE5EE" transform="translate(202,245)"></path><path d="M0 0 C-3.48216283 2.05137315 -6.77275657 2.56818592 -10.75 3.125 C-11.92046875 3.29257813 -13.0909375 3.46015625 -14.296875 3.6328125 C-15.18890625 3.75398437 -16.0809375 3.87515625 -17 4 C-17.33 3.01 -17.66 2.02 -18 1 C-15.94248866 0.43968212 -13.87868424 -0.09756118 -11.8125 -0.625 C-10.66394531 -0.92664063 -9.51539063 -1.22828125 -8.33203125 -1.5390625 C-4.7631009 -2.03277151 -3.14597529 -1.64704544 0 0 Z " fill="#3D3D3D" transform="translate(146,240)"></path><path d="M0 0 C0.66 0 1.32 0 2 0 C2.66 2.97 3.32 5.94 4 9 C4.66 9 5.32 9 6 9 C9.22265625 14.2734375 9.22265625 14.2734375 10 16 C9.67 16.66 9.34 17.32 9 18 C4.14197224 12.99556592 0.86992469 8.77847701 -1 2 C-0.67 1.34 -0.34 0.68 0 0 Z " fill="#80A3C6" transform="translate(144,168)"></path><path d="M0 0 C3.69230769 0.69230769 3.69230769 0.69230769 5 2 C5.1875 4.4375 5.1875 4.4375 5 7 C4.34 7.66 3.68 8.32 3 9 C0.875 8.625 0.875 8.625 -1 8 C-1.04241723 5.66705225 -1.04092937 3.33297433 -1 1 C-0.67 0.67 -0.34 0.34 0 0 Z " fill="#636B80" transform="translate(223,288)"></path><path d="M0 0 C4.95 0.99 4.95 0.99 10 2 C10 2.66 10 3.32 10 4 C12.97 4.495 12.97 4.495 16 5 C16.33 6.32 16.66 7.64 17 9 C11.38014179 7.37319894 6.04233913 4.96273034 1 2 C0.67 1.34 0.34 0.68 0 0 Z " fill="#7FA3C6" transform="translate(204,104)"></path><path d="M0 0 C0.33 0 0.66 0 1 0 C1.3125 3.3125 1.3125 3.3125 1 7 C-1.80895252 9.56110377 -3.52406656 9.97306037 -7.3125 10.1875 C-8.6428125 10.0946875 -8.6428125 10.0946875 -10 10 C-10 8.68 -10 7.36 -10 6 C-2.25 4.875 -2.25 4.875 0 6 C0 4.02 0 2.04 0 0 Z " fill="#4675AB" transform="translate(150,264)"></path><path d="M0 0 C-0.33 0.66 -0.66 1.32 -1 2 C-3.61751567 2.67138538 -6.15863423 3.21616601 -8.8125 3.6875 C-9.90014648 3.90116211 -9.90014648 3.90116211 -11.00976562 4.11914062 C-14.68374052 4.79477553 -17.43203331 5.07608489 -21 4 C-13.66338605 1.13996405 -7.87940506 -0.13354924 0 0 Z " fill="#0B0B0B" transform="translate(163,235)"></path><path d="M0 0 C2.475 0.495 2.475 0.495 5 1 C5 3.64 5 6.28 5 9 C3.35 9 1.7 9 0 9 C0 6.03 0 3.06 0 0 Z " fill="#555C75" transform="translate(238,288)"></path><path d="M0 0 C4.29 0 8.58 0 13 0 C8.94403247 4.05596753 7.07864102 5.04667653 2 7 C2 5 2 5 4 3 C2.68 2.34 1.36 1.68 0 1 C0 0.67 0 0.34 0 0 Z " fill="#5D86B5" transform="translate(223,218)"></path><path d="M0 0 C1.32 0 2.64 0 4 0 C4 0.66 4 1.32 4 2 C5.98 2 7.96 2 10 2 C9.67 2.99 9.34 3.98 9 5 C8.67 4.67 8.34 4.34 8 4 C7.67 4.66 7.34 5.32 7 6 C7.66 6.33 8.32 6.66 9 7 C7.0625 6.625 7.0625 6.625 5 6 C4.67 5.34 4.34 4.68 4 4 C2.02 4.99 2.02 4.99 0 6 C0 4.02 0 2.04 0 0 Z " fill="#7F7F7F" transform="translate(252,223)"></path><path d="M0 0 C0 0.66 0 1.32 0 2 C-1.258125 2.103125 -2.51625 2.20625 -3.8125 2.3125 C-7.13957417 2.69609156 -7.13957417 2.69609156 -9.875 4.5625 C-10.24625 5.036875 -10.6175 5.51125 -11 6 C-11.66 6 -12.32 6 -13 6 C-10.21347764 -0.73409569 -6.93401106 -1.46681003 0 0 Z " fill="#547FB1" transform="translate(200,142)"></path><path d="M0 0 C0.33 0 0.66 0 1 0 C1.144375 1.134375 1.28875 2.26875 1.4375 3.4375 C1.61171478 6.80777201 1.61171478 6.80777201 3 8 C3.04063832 9.66617115 3.042721 11.33388095 3 13 C1.35 13 -0.3 13 -2 13 C-2 10.69 -2 8.38 -2 6 C-1.67 6 -1.34 6 -1 6 C-0.67 4.02 -0.34 2.04 0 0 Z " fill="#3A6DA6" transform="translate(171,254)"></path><path d="M0 0 C0.66 0 1.32 0 2 0 C2 0.99 2 1.98 2 3 C2.66 3 3.32 3 4 3 C4.33 2.34 4.66 1.68 5 1 C5 3.31 5 5.62 5 8 C3.35 8.33 1.7 8.66 0 9 C0 6.03 0 3.06 0 0 Z " fill="#41506A" transform="translate(159,288)"></path><path d="M0 0 C2.475 0.495 2.475 0.495 5 1 C5 2.65 5 4.3 5 6 C4.01 6 3.02 6 2 6 C2 6.66 2 7.32 2 8 C1.34 8 0.68 8 0 8 C0 5.36 0 2.72 0 0 Z " fill="#475670" transform="translate(206,288)"></path><path d="M0 0 C0.33 0 0.66 0 1 0 C2.01593448 6.88577812 1.83854735 13.09811029 1 20 C-1.7865517 17.2134483 -1.65662895 14.84575573 -2 11 C-1.67 10.34 -1.34 9.68 -1 9 C-0.77532169 7.46331135 -0.59203195 5.92031946 -0.4375 4.375 C-0.35371094 3.55773437 -0.26992188 2.74046875 -0.18359375 1.8984375 C-0.12300781 1.27195312 -0.06242187 0.64546875 0 0 Z " fill="#A2A2A2" transform="translate(269,255)"></path><path d="M0 0 C1.98 0.495 1.98 0.495 4 1 C4 3.31 4 5.62 4 8 C2.35 8 0.7 8 -1 8 C-0.67 5.36 -0.34 2.72 0 0 Z " fill="#44516A" transform="translate(191,288)"></path><path d="M0 0 C0.66 0 1.32 0 2 0 C1.52269162 1.4589426 1.04308958 2.91713496 0.5625 4.375 C0.29566406 5.18710937 0.02882813 5.99921875 -0.24609375 6.8359375 C-1 9 -1 9 -2 11 C-2.99 10.67 -3.98 10.34 -5 10 C-3.85569823 6.12697862 -2.76679902 2.99736561 0 0 Z " fill="#CDCDCD" transform="translate(298,268)"></path><path d="M0 0 C1.89646998 0.11493757 3.79218332 0.24239642 5.6875 0.375 C6.74324219 0.44460937 7.79898438 0.51421875 8.88671875 0.5859375 C11.90677269 0.98760089 14.24078054 1.74069019 17 3 C17 3.33 17 3.66 17 4 C5.47835991 3.22095672 5.47835991 3.22095672 0 1 C0 0.67 0 0.34 0 0 Z " fill="#090909" transform="translate(241,235)"></path><path d="M0 0 C0.66 0 1.32 0 2 0 C2.66 3.63 3.32 7.26 4 11 C2.68 11 1.36 11 0 11 C0 7.37 0 3.74 0 0 Z " fill="#D8E2ED" transform="translate(183,246)"></path><path d="M0 0 C1.32 0 2.64 0 4 0 C4 0.66 4 1.32 4 2 C3.01 2.33 2.02 2.66 1 3 C0.26676204 5.01508358 0.26676204 5.01508358 0 7 C0.99 7 1.98 7 3 7 C2.67 6.01 2.34 5.02 2 4 C2.66 4 3.32 4 4 4 C3.67 5.65 3.34 7.3 3 9 C1.68 8.67 0.36 8.34 -1 8 C-1.04241723 5.66705225 -1.04092937 3.33297433 -1 1 C-0.67 0.67 -0.34 0.34 0 0 Z " fill="#303755" transform="translate(176,288)"></path><path d="M0 0 C0.33 0.66 0.66 1.32 1 2 C0.34 2 -0.32 2 -1 2 C-1 2.99 -1 3.98 -1 5 C-2.98 5.66 -4.96 6.32 -7 7 C-7 6.34 -7 5.68 -7 5 C-7.99 4.67 -8.98 4.34 -10 4 C-6.7 2.68 -3.4 1.36 0 0 Z " fill="#3B3B3B" transform="translate(102,251)"></path><path d="M0 0 C0.66 0 1.32 0 2 0 C2.61538462 7.26153846 2.61538462 7.26153846 -0.5 11 C-1.325 11.66 -2.15 12.32 -3 13 C-3 10 -3 10 -1 8 C-0.54188325 6.02764667 -0.54188325 6.02764667 -0.375 3.875 C-0.25125 2.59625 -0.1275 1.3175 0 0 Z " fill="#547FB1" transform="translate(204,148)"></path><path d="M0 0 C4.455 0.99 4.455 0.99 9 2 C8.67 2.99 8.34 3.98 8 5 C5.36 4.67 2.72 4.34 0 4 C0 2.66666667 0 1.33333333 0 0 Z " fill="#484848" transform="translate(257,237)"></path><path d="M0 0 C1.32 0 2.64 0 4 0 C4 0.66 4 1.32 4 2 C3.34 2 2.68 2 2 2 C2 2.66 2 3.32 2 4 C2.66 4.33 3.32 4.66 4 5 C3.34 5 2.68 5 2 5 C2 5.66 2 6.32 2 7 C2.66 7.33 3.32 7.66 4 8 C2.68 8 1.36 8 0 8 C0 5.36 0 2.72 0 0 Z " fill="#3D425A" transform="translate(253,288)"></path><path d="M0 0 C0 0.66 0 1.32 0 2 C-5.445 3.485 -5.445 3.485 -11 5 C-10 2 -10 2 -7.75 0.8125 C-5.00208853 0.00061706 -2.84552111 -0.16260121 0 0 Z " fill="#0C0C0C" transform="translate(129,243)"></path><path d="M0 0 C0.66 0.99 1.32 1.98 2 3 C-0.64 3.33 -3.28 3.66 -6 4 C-6 3.67 -6 3.34 -6 3 C-7.65 2.67 -9.3 2.34 -11 2 C-11 1.67 -11 1.34 -11 1 C-3.52173913 -0.39130435 -3.52173913 -0.39130435 0 0 Z " fill="#5B5B5B" transform="translate(168,233)"></path><path d="M0 0 C0.66 0 1.32 0 2 0 C2 0.66 2 1.32 2 2 C1.34 2 0.68 2 0 2 C0.7734375 2.61875 0.7734375 2.61875 1.5625 3.25 C2.036875 3.8275 2.51125 4.405 3 5 C2.6875 7.1875 2.6875 7.1875 2 9 C1.01 9 0.02 9 -1 9 C-1 1 -1 1 0 0 Z " fill="#38425F" transform="translate(134,288)"></path><path d="M0 0 C1.32 0.33 2.64 0.66 4 1 C2.824375 1.7115625 2.824375 1.7115625 1.625 2.4375 C-1.9310969 5.90892793 -2.31347549 9.2045751 -3 14 C-3.33 14 -3.66 14 -4 14 C-4.49940808 7.88225104 -3.24900602 4.97504047 0 0 Z " fill="#B2B2B2" transform="translate(257,253)"></path><path d="M0 0 C0.66 0 1.32 0 2 0 C2.33 1.98 2.66 3.96 3 6 C1.68 6 0.36 6 -1 6 C-1.625 4.125 -1.625 4.125 -2 2 C-1.34 1.34 -0.68 0.68 0 0 Z " fill="#626262" transform="translate(108,233)"></path><path d="M0 0 C0.99 0.33 1.98 0.66 3 1 C2.67 2.65 2.34 4.3 2 6 C0.68 5.67 -0.64 5.34 -2 5 C-1.34 3.35 -0.68 1.7 0 0 Z " fill="#616161" transform="translate(283,231)"></path><path d="M0 0 C1.32 0 2.64 0 4 0 C7.22265625 5.2734375 7.22265625 5.2734375 8 7 C7.67 7.66 7.34 8.32 7 9 C5.83037314 7.69013727 4.66437056 6.3770374 3.5 5.0625 C2.8503125 4.33160156 2.200625 3.60070312 1.53125 2.84765625 C0 1 0 1 0 0 Z " fill="#94B1CE" transform="translate(146,177)"></path><path d="M0 0 C0.33 0 0.66 0 1 0 C2.125 7.75 2.125 7.75 1 10 C1.66 10.33 2.32 10.66 3 11 C1.68 11 0.36 11 -1 11 C-0.67 7.37 -0.34 3.74 0 0 Z " fill="#6B90BB" transform="translate(220,255)"></path><path d="M0 0 C0.99 0.33 1.98 0.66 3 1 C3.6875 3.0625 3.6875 3.0625 4 5 C2.68 5.33 1.36 5.66 0 6 C-0.38218767 4.34385343 -0.71395102 2.67542976 -1 1 C-0.67 0.67 -0.34 0.34 0 0 Z " fill="#535353" transform="translate(85,243)"></path><path d="M0 0 C-0.33 0.99 -0.66 1.98 -1 3 C-1.66 3 -2.32 3 -3 3 C-3 3.66 -3 4.32 -3 5 C-3.99 5 -4.98 5 -6 5 C-5.625 3.0625 -5.625 3.0625 -5 1 C-3 0 -3 0 0 0 Z " fill="#2A2A2A" transform="translate(76,265)"></path><path d="M0 0 C0.99 0 1.98 0 3 0 C2.34 2.31 1.68 4.62 1 7 C0.34 7 -0.32 7 -1 7 C-1.04254356 5.00045254 -1.04080783 2.99958364 -1 1 C-0.67 0.67 -0.34 0.34 0 0 Z " fill="#7D7D7D" transform="translate(308,241)"></path><path d="M0 0 C1.98 0.495 1.98 0.495 4 1 C4 1.99 4 2.98 4 4 C3.34 4 2.68 4 2 4 C1.67 4.66 1.34 5.32 1 6 C0.34 5.67 -0.32 5.34 -1 5 C-0.67 3.35 -0.34 1.7 0 0 Z " fill="#606060" transform="translate(266,226)"></path><path d="M0 0 C1.98 0 3.96 0 6 0 C6 1.32 6 2.64 6 4 C4.35 3.67 2.7 3.34 1 3 C0.67 2.01 0.34 1.02 0 0 Z " fill="#3166A2" transform="translate(227,243)"></path><path d="M0 0 C0.66 0.66 1.32 1.32 2 2 C2.66 1.67 3.32 1.34 4 1 C4.33 2.65 4.66 4.3 5 6 C4.34 6 3.68 6 3 6 C2.67 6.99 2.34 7.98 2 9 C1.34 6.03 0.68 3.06 0 0 Z " fill="#D9DADC" transform="translate(138,165)"></path><path d="M0 0 C0.99 0.99 1.98 1.98 3 3 C2.67 3.99 2.34 4.98 2 6 C-0.475 5.01 -0.475 5.01 -3 4 C-2.67 3.01 -2.34 2.02 -2 1 C-2 1.66 -2 2.32 -2 3 C-1.34 2.67 -0.68 2.34 0 2 C0 1.34 0 0.68 0 0 Z " fill="#3B6DA6" transform="translate(209,260)"></path><path d="M0 0 C-0.99 1.485 -0.99 1.485 -2 3 C-4.64 2.34 -7.28 1.68 -10 1 C-10 0.67 -10 0.34 -10 0 C-6.30458414 -0.95024979 -3.69541586 -0.95024979 0 0 Z " fill="#4F4F4F" transform="translate(293,248)"></path><path d="M0 0 C0.99 0 1.98 0 3 0 C2.67 1.65 2.34 3.3 2 5 C0.68 5 -0.64 5 -2 5 C-1.34 3.35 -0.68 1.7 0 0 Z " fill="#545454" transform="translate(296,237)"></path><path d="M0 0 C0.33 0 0.66 0 1 0 C1 2.97 1 5.94 1 9 C0.34 9 -0.32 9 -1 9 C-1.625 5.625 -1.625 5.625 -2 2 C-1.34 1.34 -0.68 0.68 0 0 Z " fill="#BECFE0" transform="translate(248,152)"></path><path d="M0 0 C4.95 0.99 4.95 0.99 10 2 C9.01 2.66 8.02 3.32 7 4 C3.875 3.25 3.875 3.25 1 2 C0.67 1.34 0.34 0.68 0 0 Z " fill="#ACC1D8" transform="translate(204,104)"></path><path d="M0 0 C4.75 0.875 4.75 0.875 7 2 C6.67 2.99 6.34 3.98 6 5 C4.02 4.01 2.04 3.02 0 2 C0 1.34 0 0.68 0 0 Z " fill="#0C0C0C" transform="translate(308,257)"></path><path d="M0 0 C0 0.66 0 1.32 0 2 C-4.625 4.125 -4.625 4.125 -8 3 C-7.34 3 -6.68 3 -6 3 C-6 2.34 -6 1.68 -6 1 C-4 0 -4 0 0 0 Z " fill="#101010" transform="translate(109,250)"></path><path d="M0 0 C0.66 0 1.32 0 2 0 C2.66 1.98 3.32 3.96 4 6 C2.68 5.67 1.36 5.34 0 5 C-0.5625 3.0625 -0.5625 3.0625 -1 1 C-0.67 0.67 -0.34 0.34 0 0 Z " fill="#565656" transform="translate(121,229)"></path></svg>