<svg xmlns="http://www.w3.org/2000/svg" width="400" height="400"><path d="M0 0 C132 0 264 0 400 0 C400 85.8 400 171.6 400 260 C268 260 136 260 0 260 C0 174.2 0 88.4 0 0 Z " fill="#020101" transform="translate(0,69)"></path><path d="M0 0 C9.97210713 5.64458894 14.40929912 13.7306223 18.1953125 24.3515625 C19.25227198 28.20723158 19.51156567 31.89368652 19.3125 35.875 C19.9725 35.875 20.6325 35.875 21.3125 35.875 C21.580625 35.25625 21.84875 34.6375 22.125 34 C23.3125 31.875 23.3125 31.875 26.3125 29.875 C31.12790624 29.40135348 33.36364955 29.38300347 37.6875 31.625 C40.88672865 34.36719598 42.15236804 36.18980466 42.55300903 40.40606689 C42.54856781 41.35648865 42.54412659 42.3069104 42.53955078 43.28613281 C42.53939972 44.36695129 42.53924866 45.44776978 42.53909302 46.56134033 C42.52877045 47.72187927 42.51844788 48.88241821 42.5078125 50.078125 C42.5049826 51.27105164 42.50215271 52.46397827 42.49923706 53.6930542 C42.48804053 57.50380476 42.46293653 61.31432045 42.4375 65.125 C42.42746954 67.70832994 42.4183438 70.29166356 42.41015625 72.875 C42.38810289 79.20841349 42.35463035 85.54168997 42.3125 91.875 C42.9725 91.875 43.6325 91.875 44.3125 91.875 C44.30139694 91.19927948 44.29029388 90.52355896 44.27885437 89.82736206 C44.16813689 82.78706088 44.09278057 75.74700747 44.0378418 68.70605469 C44.01271571 66.07932488 43.97860915 63.45266486 43.93530273 60.82617188 C43.87457194 57.0480018 43.84626985 53.27075704 43.82421875 49.4921875 C43.79841232 48.32009735 43.7726059 47.1480072 43.74601746 45.94039917 C43.74289325 36.83479361 43.74289325 36.83479361 46.71801758 33.14892578 C50.29034735 30.01796883 52.35858616 29.54801327 57.13671875 29.57421875 C60.79631971 30.08012409 63.26550849 31.84367233 66.3125 33.875 C67.3025 33.215 68.2925 32.555 69.3125 31.875 C69.75561133 29.65285128 69.75561133 29.65285128 69.68359375 27.078125 C69.70099609 26.1190625 69.71839844 25.16 69.73632812 24.171875 C69.74537254 22.15626356 69.75064087 20.1406313 69.75195312 18.125 C69.86938825 12.06696724 70.22895583 8.46991359 74.3125 3.875 C78.02232446 1.4017837 81.01138142 1.32789098 85.3125 1.875 C89.04958375 3.53592611 91.16090937 5.42424253 93.3125 8.875 C93.65307617 11.34863281 93.65307617 11.34863281 93.60546875 14.078125 C93.59580078 15.0578125 93.58613281 16.0375 93.57617188 17.046875 C93.55103516 18.06265625 93.52589844 19.0784375 93.5 20.125 C93.48646484 21.15625 93.47292969 22.1875 93.45898438 23.25 C93.42367607 25.79219792 93.37436036 28.33333223 93.3125 30.875 C94.08980469 31.00003906 94.86710938 31.12507813 95.66796875 31.25390625 C98.3125 31.875 98.3125 31.875 100.625 33.8125 C103.03138267 38.17963891 103.10618276 41.99264848 102.3125 46.875 C100.625 49.9375 100.625 49.9375 98.3125 51.875 C96.65784883 52.26361084 94.9906 52.60505688 93.3125 52.875 C93.40608014 58.78348268 93.51218486 64.69155781 93.62988281 70.59960938 C93.66815669 72.60931238 93.70301236 74.61908351 93.734375 76.62890625 C93.78005991 79.5184768 93.83804887 82.40757896 93.8984375 85.296875 C93.91576431 86.64395538 93.91576431 86.64395538 93.93344116 88.01824951 C93.9632457 89.2791037 93.9632457 89.2791037 93.99365234 90.56542969 C94.01363785 91.67129425 94.01363785 91.67129425 94.0340271 92.79949951 C94.35977633 95.22735758 94.994978 96.81188431 96.3125 98.875 C98.29570018 99.90791676 100.29597806 100.9087499 102.3125 101.875 C105.14410532 106.12240799 104.95772317 109.88846043 104.3125 114.875 C102.55517125 117.99914 101.16545533 119.3632268 98.125 121.1875 C92.23187223 122.62804234 87.34096047 122.85620416 82 119.6875 C75.53047696 115.07556278 72.58552638 109.3695374 70.3125 101.875 C69.76369465 97.89654819 69.70785562 93.97323622 69.703125 89.9609375 C69.68658875 88.86528473 69.67005249 87.76963196 69.65301514 86.64077759 C69.60483542 83.17712633 69.58323045 79.71391315 69.5625 76.25 C69.5343153 73.88669706 69.50438442 71.52341427 69.47265625 69.16015625 C69.39908474 63.39851625 69.34726695 57.63699794 69.3125 51.875 C68.6525 51.545 67.9925 51.215 67.3125 50.875 C67.32249275 52.02012558 67.32249275 52.02012558 67.33268738 53.18838501 C67.39290162 60.39740732 67.43852656 67.60630698 67.46793652 74.81551552 C67.483565 78.52148834 67.50475119 82.22725264 67.53881836 85.93310547 C67.57151319 89.51224175 67.58937419 93.09117798 67.59713173 96.67045212 C67.60265716 98.03315757 67.61344704 99.39585259 67.62969017 100.75847244 C67.65159636 102.67301931 67.65272653 104.58776925 67.65307617 106.50244141 C67.66306892 108.13459091 67.66306892 108.13459091 67.67326355 109.79971313 C67.13733164 114.3682023 65.63098658 117.74486865 62.125 120.75 C58.45920055 122.21631978 55.17048307 122.58944131 51.3125 121.875 C49.01300346 120.75199006 47.3299989 119.48899912 45.3125 117.875 C44.136875 118.865 44.136875 118.865 42.9375 119.875 C38.64533819 122.71270887 34.28173824 122.77334763 29.3125 121.875 C24.06989227 118.96244015 22.08656615 115.35967547 20.05859375 109.7890625 C18.71890009 104.55654171 18.48119354 99.25632378 18.3125 93.875 C18.10496094 94.62523437 17.89742188 95.37546875 17.68359375 96.1484375 C14.79648439 105.73992216 11.04841479 113.73496582 2.5625 119.5 C-2.83518925 122.36675453 -7.69142274 123.17239683 -13.6875 121.875 C-22.60098638 118.00688327 -27.55607897 111.0512687 -31.13793945 102.28662109 C-31.40179443 101.61453613 -31.66564941 100.94245117 -31.9375 100.25 C-32.18395264 99.63592285 -32.43040527 99.0218457 -32.68432617 98.38916016 C-37.01681394 86.56130381 -37.03646537 73.84001308 -37.00317383 61.4074707 C-37.000008 58.94372457 -37.02359687 56.48117761 -37.04882812 54.01757812 C-37.11875549 36.62567387 -34.92324127 18.27604996 -22.6875 4.875 C-15.67280925 -1.47162496 -9.09185171 -2.77378527 0 0 Z " fill="#EBEBEB" transform="translate(258.6875,107.125)"></path><path d="M0 0 C7.83429095 4.34901645 11.3284924 11.10874496 13.9375 19.4375 C16.34733754 27.87193137 17.63153464 37.60950129 14.6875 46 C12.09075702 49.61689201 10.2212061 52.00959797 5.9375 53.4375 C3.71175665 53.66201458 1.48168481 53.84532878 -0.75 54 C-1.92949219 54.08378906 -3.10898438 54.16757813 -4.32421875 54.25390625 C-5.67966797 54.34478516 -5.67966797 54.34478516 -7.0625 54.4375 C-7.0625 58.3975 -7.0625 62.3575 -7.0625 66.4375 C-2.25134294 64.71218064 -2.25134294 64.71218064 0.9375 62.4375 C5.27833735 61.87479886 7.21460864 61.91890402 10.8125 64.5 C13.46225047 68.16289035 14.08630822 69.89884931 13.9375 74.4375 C11.40440485 81.82858586 7.79898399 86.57780354 1.078125 90.53125 C-3.18774486 92.3372387 -7.54351534 92.11718468 -12.0625 91.4375 C-20.72695753 87.88804154 -25.12556565 80.53110458 -29.0625 72.4375 C-29.17207031 73.24574219 -29.28164062 74.05398437 -29.39453125 74.88671875 C-29.63236328 76.48966797 -29.63236328 76.48966797 -29.875 78.125 C-30.10123047 79.70861328 -30.10123047 79.70861328 -30.33203125 81.32421875 C-31.24009418 85.19441211 -32.56452853 88.27241108 -35.75 90.75 C-39.89351164 91.98185481 -43.95039242 92.5583992 -47.84375 90.4921875 C-51.20660884 87.87113576 -52.77274536 85.41711393 -54.0625 81.4375 C-54.3409729 78.97599792 -54.3409729 78.97599792 -54.38134766 76.37182617 C-54.40121735 75.39118698 -54.42108704 74.41054779 -54.44155884 73.40019226 C-54.45311005 72.3541835 -54.46466125 71.30817474 -54.4765625 70.23046875 C-54.49592865 69.14993729 -54.5152948 68.06940582 -54.5352478 66.95613098 C-54.59492103 63.5125004 -54.64138041 60.06883617 -54.6875 56.625 C-54.72569101 54.28709498 -54.7647434 51.94920385 -54.8046875 49.61132812 C-54.90061253 43.88684235 -54.98569593 38.16227252 -55.0625 32.4375 C-55.06836624 33.0778569 -55.07423248 33.71821381 -55.08027649 34.37797546 C-55.14423193 41.04548718 -55.22865759 47.7125172 -55.32495117 54.37963867 C-55.35819657 56.86752978 -55.38622966 59.35549624 -55.40893555 61.84350586 C-55.4424877 65.42073668 -55.49480592 68.99727719 -55.55078125 72.57421875 C-55.56036613 74.24166389 -55.56036613 74.24166389 -55.57014465 75.9427948 C-55.58993881 76.98349625 -55.60973297 78.02419769 -55.63012695 79.09643555 C-55.64123001 80.0091069 -55.65233307 80.92177826 -55.66377258 81.86210632 C-56.24084967 85.58946646 -57.75718089 88.42225181 -60.75 90.75 C-64.23679449 91.78661458 -67.50163952 92.13126606 -71.0625 91.4375 C-74.85322475 88.55325291 -76.56708025 85.88916329 -78.0625 81.4375 C-78.3409729 78.97599792 -78.3409729 78.97599792 -78.38134766 76.37182617 C-78.40121735 75.39118698 -78.42108704 74.41054779 -78.44155884 73.40019226 C-78.45311005 72.3541835 -78.46466125 71.30817474 -78.4765625 70.23046875 C-78.49592865 69.14993729 -78.5152948 68.06940582 -78.5352478 66.95613098 C-78.59492103 63.5125004 -78.64138041 60.06883617 -78.6875 56.625 C-78.72569101 54.28709498 -78.7647434 51.94920385 -78.8046875 49.61132812 C-78.90061253 43.88684235 -78.98569593 38.16227252 -79.0625 32.4375 C-79.06836624 33.06532883 -79.07423248 33.69315765 -79.08027649 34.3400116 C-79.14423774 40.8777682 -79.22866483 47.4150338 -79.32495117 53.95239258 C-79.35819417 56.39177983 -79.38622801 58.83124388 -79.40893555 61.27075195 C-79.44249217 64.77849032 -79.49481049 68.28552525 -79.55078125 71.79296875 C-79.56036613 73.42760323 -79.56036613 73.42760323 -79.57014465 75.09526062 C-79.75349269 84.54955485 -79.75349269 84.54955485 -83.0625 88.4375 C-86.5950558 91.36447481 -89.66596108 91.97447897 -94.1328125 91.7890625 C-97.304653 91.21119682 -98.91750693 89.77175716 -101.0625 87.4375 C-103.18316 83.28103543 -103.32594524 79.70969842 -103.35302734 75.08032227 C-103.35974457 74.3577121 -103.36646179 73.63510193 -103.37338257 72.89059448 C-103.39231673 70.51162769 -103.39628416 68.13294361 -103.3984375 65.75390625 C-103.40486777 64.09390651 -103.4115963 62.4339079 -103.41860962 60.77391052 C-103.43057029 57.2980588 -103.43429161 53.82230639 -103.43310547 50.34643555 C-103.43290215 45.89988873 -103.46022248 41.45398011 -103.49464989 37.00758457 C-103.51692112 33.58026726 -103.52094298 30.15310362 -103.51988602 26.72572136 C-103.52224094 25.08670791 -103.53105839 23.44769016 -103.54655075 21.80874825 C-103.56621967 19.513405 -103.56037084 17.21943924 -103.54833984 14.92407227 C-103.55118988 13.62011002 -103.55403992 12.31614777 -103.55697632 10.97267151 C-102.90181985 6.28874552 -101.04878271 2.94433516 -97.25 0.0625 C-94.00626185 -0.86428233 -91.41988508 -0.91590896 -88.0625 -0.5625 C-85.125 1.4375 -85.125 1.4375 -83.0625 3.4375 C-79.51731116 2.03990095 -79.51731116 2.03990095 -76.0625 0.4375 C-71.93471617 -0.08218501 -67.78887322 -0.53062302 -64.0703125 1.5546875 C-62.4375 2.9375 -62.4375 2.9375 -60.0625 5.4375 C-59.49402344 5.004375 -58.92554688 4.57125 -58.33984375 4.125 C-54.71588666 1.51139489 -51.93078989 -0.39493529 -47.5 -1.25 C-41.99520221 -0.14904044 -37.97910978 1.9908648 -34.48046875 6.45703125 C-31.27518577 11.73143062 -30.35416001 16.31263986 -30.0625 22.4375 C-29.84335938 21.8084375 -29.62421875 21.179375 -29.3984375 20.53125 C-25.96795171 11.27172739 -21.4668557 4.70707047 -13.1875 -0.8125 C-8.52896695 -2.45668814 -4.43336656 -1.97509447 0 0 Z " fill="#EDEDED" transform="translate(201.0625,137.5625)"></path><path d="M0 0 C8.41586936 3.9697497 12.7885221 11.62980185 16 20 C23.55638925 43.9267934 23.6425883 76.78982435 13.25 99.875 C10.10241025 105.48766642 5.80375432 110.09812284 0 113 C-4.85541217 113.80508544 -9.17399152 114.02625592 -13.55078125 111.56640625 C-25.04091289 101.96876688 -28.19822928 87.18430638 -29.64453125 72.88671875 C-31.40383827 51.517244 -32.72634578 24.1738285 -18.64453125 6.27734375 C-17.375 4.9375 -17.375 4.9375 -15 3 C-14.401875 2.4740625 -13.80375 1.948125 -13.1875 1.40625 C-9.15384045 -1.18681686 -4.61612568 -0.59129412 0 0 Z " fill="#050505" transform="translate(256,111)"></path><path d="M0 0 C132 0 264 0 400 0 C400 85.8 400 171.6 400 260 C268 260 136 260 0 260 C0 174.2 0 88.4 0 0 Z M2 3 C2 86.82 2 170.64 2 257 C132.35 257 262.7 257 397 257 C397 173.18 397 89.36 397 3 C266.65 3 136.3 3 2 3 Z " fill="#E80713" transform="translate(0,69)"></path><path d="M0 0 C1.9375 2.5 1.9375 2.5 3 5 C6.4224979 4.59735319 8.05055055 3.96263655 10.875 1.875 C14 0 14 0 17.6875 0.0625 C20.91850822 0.97693629 22.11555098 1.32209876 24 4 C25.1875 6.1875 25.1875 6.1875 26 8 C28.97892949 6.66305125 30.999098 5.16079577 33.3125 2.875 C35.98037293 0.55486264 36.94132086 0.01132405 40.5625 -0.6875 C44.99367049 0.1987341 46.89077113 1.74944254 50 5 C52.6368524 9.41181564 53.37770295 12.65302561 53.38818359 17.76806641 C53.39344055 18.41600662 53.39869751 19.06394684 53.40411377 19.73152161 C53.41722696 21.8551199 53.40860952 23.97795773 53.3984375 26.1015625 C53.40046026 27.58556257 53.40337338 29.06956167 53.40713501 30.55355835 C53.41154614 33.65526851 53.40516482 36.75671861 53.39111328 39.85839844 C53.37399185 43.83087584 53.38388844 47.80274645 53.40183067 51.7752018 C53.41267595 54.83615689 53.40921934 57.89696827 53.4014473 60.9579277 C53.39944888 62.42273404 53.40189197 63.88755351 53.40888596 65.35234451 C53.4165164 67.39882207 53.40487706 69.44431812 53.38818359 71.49072266 C53.38579681 72.65399078 53.38341003 73.81725891 53.38095093 75.01577759 C52.9635939 78.28519131 52.28678529 79.66776308 50 82 C48.0625 82.56640625 48.0625 82.56640625 46 82.5625 C45.319375 82.58441406 44.63875 82.60632813 43.9375 82.62890625 C42 82 42 82 40.40429688 80.15942383 C38.30222016 75.43011666 38.57896097 70.94012603 38.59375 65.8203125 C38.58291382 64.73418671 38.57207764 63.64806091 38.56091309 62.52902222 C38.52667286 59.06095416 38.51106519 55.5932148 38.5 52.125 C38.48540631 47.56478918 38.45166468 43.00530907 38.40625 38.4453125 C38.40927124 37.40343781 38.41229248 36.36156311 38.41540527 35.28811646 C38.35504524 29.41173019 37.76169802 25.21521981 35 20 C33.05925139 20.27617533 33.05925139 20.27617533 31 21 C28.80324204 24.29513694 28.74655499 25.29774476 28.72875977 29.12646484 C28.71857315 30.17119965 28.70838654 31.21593445 28.69789124 32.29232788 C28.69575119 33.42046906 28.69361115 34.54861023 28.69140625 35.7109375 C28.66624681 38.09375245 28.64084878 40.4765649 28.61523438 42.859375 C28.58647835 46.62076167 28.56246456 50.38210476 28.54370117 54.14355469 C28.52206177 57.77041277 28.48262174 61.39675683 28.44140625 65.0234375 C28.44129044 66.14753021 28.44117462 67.27162292 28.4410553 68.42977905 C28.42771652 69.48081818 28.41437775 70.5318573 28.40063477 71.61474609 C28.39302879 72.99682755 28.39302879 72.99682755 28.38526917 74.40682983 C27.9138723 77.57970844 26.95268052 79.46525711 25 82 C21.5 82.5625 21.5 82.5625 18 82 C15.10727266 79.07367385 14.6244977 76.91125331 14.61523438 72.86767578 C14.60512329 71.84626495 14.59501221 70.82485413 14.58459473 69.77249146 C14.58761597 68.6745224 14.59063721 67.57655334 14.59375 66.4453125 C14.58291382 65.311008 14.57207764 64.17670349 14.56091309 63.00802612 C14.5266183 59.3802928 14.51105327 55.75287419 14.5 52.125 C14.48542896 47.35646812 14.45172582 42.58863868 14.40625 37.8203125 C14.40927124 36.72639191 14.41229248 35.63247131 14.41540527 34.50540161 C14.35964745 28.83804065 14.12934697 24.79867743 11 20 C9.05925139 20.27617533 9.05925139 20.27617533 7 21 C4.80324204 24.29513694 4.74655499 25.29774476 4.72875977 29.12646484 C4.71857315 30.17119965 4.70838654 31.21593445 4.69789124 32.29232788 C4.69575119 33.42046906 4.69361115 34.54861023 4.69140625 35.7109375 C4.66624681 38.09375245 4.64084878 40.4765649 4.61523438 42.859375 C4.58647835 46.62076167 4.56246456 50.38210476 4.54370117 54.14355469 C4.52206177 57.77041277 4.48262174 61.39675683 4.44140625 65.0234375 C4.44129044 66.14753021 4.44117462 67.27162292 4.4410553 68.42977905 C4.42771652 69.48081818 4.41437775 70.5318573 4.40063477 71.61474609 C4.39556412 72.53613373 4.39049347 73.45752136 4.38526917 74.40682983 C3.91990068 77.53913258 2.84835112 79.44907436 1 82 C-0.9375 82.62890625 -0.9375 82.62890625 -3 82.5625 C-3.680625 82.56378906 -4.36125 82.56507813 -5.0625 82.56640625 C-7.89188016 81.73926891 -8.5277513 80.53946011 -10 78 C-10.38095093 74.69187927 -10.38095093 74.69187927 -10.38818359 70.70874023 C-10.39344055 69.98145721 -10.39869751 69.25417419 -10.40411377 68.50485229 C-10.41729537 66.10587966 -10.40858352 63.70757288 -10.3984375 61.30859375 C-10.40045855 59.63997775 -10.40337026 57.97136261 -10.40713501 56.30274963 C-10.41155567 52.80827411 -10.4051349 49.31402882 -10.39111328 45.81958008 C-10.37400815 41.33803487 -10.38387239 36.85702812 -10.40183067 32.37550259 C-10.41266425 28.93113639 -10.40922439 25.48689817 -10.4014473 22.04252815 C-10.39944479 20.38989257 -10.40190635 18.7372454 -10.40888596 17.08462334 C-10.41649507 14.77672347 -10.40490541 12.46969974 -10.38818359 10.16186523 C-10.38579681 8.84822495 -10.38341003 7.53458466 -10.38095093 6.18113708 C-10 3 -10 3 -8.69448853 1.08363342 C-5.74923244 -0.79987177 -3.3667491 -0.48096416 0 0 Z " fill="#040404" transform="translate(113,142)"></path><path d="M0 0 C1.69371033 1.1895752 1.69371033 1.1895752 3 3 C3.38526917 5.42858887 3.38526917 5.42858887 3.40063477 8.34179688 C3.41397354 9.43302856 3.42731232 10.52426025 3.4410553 11.64855957 C3.44117111 12.82672241 3.44128693 14.00488525 3.44140625 15.21875 C3.45461411 16.42817261 3.46782196 17.63759521 3.48143005 18.88366699 C3.52241402 22.75580134 3.5440239 26.62769743 3.5625 30.5 C3.58625454 34.37223016 3.61432847 38.24423474 3.65428162 42.11633301 C3.67871071 44.52795556 3.69351048 46.93969813 3.69789124 49.35144043 C3.70807785 50.44267212 3.71826447 51.53390381 3.72875977 52.65820312 C3.73303482 53.61956177 3.73730988 54.58092041 3.74171448 55.57141113 C3.83776195 58.25887134 3.83776195 58.25887134 6 61 C9.08365871 61.2502157 9.08365871 61.2502157 12 61 C13.26236955 58.47526091 13.13138329 56.7211005 13.1418457 53.89526367 C13.15239738 52.29801704 13.15239738 52.29801704 13.16316223 50.66850281 C13.16732651 49.51332657 13.17149078 48.35815033 13.17578125 47.16796875 C13.19897921 44.73631947 13.22309654 42.30467881 13.24804688 39.87304688 C13.28318113 36.02818023 13.3125135 32.18363077 13.32592773 28.33862305 C13.3413861 24.63551154 13.38158599 20.93333411 13.42578125 17.23046875 C13.42387283 16.0813652 13.42196442 14.93226166 13.41999817 13.74833679 C13.54174716 5.81710547 13.54174716 5.81710547 15.81323242 1.7668457 C18 0 18 0 21.5625 -0.5 C25 0 25 0 26.69058228 1.0769043 C28.6645521 3.97600427 28.41776823 6.88289949 28.38818359 10.26953125 C28.39344055 11.00642181 28.39869751 11.74331238 28.40411377 12.50253296 C28.41732234 14.93940398 28.40857302 17.37562228 28.3984375 19.8125 C28.400458 21.50496547 28.40336923 23.19743009 28.40713501 24.88989258 C28.41155951 28.43742154 28.40512335 31.98472393 28.39111328 35.53222656 C28.3740212 40.08217909 28.38386173 44.63160077 28.40183067 49.18153381 C28.41266518 52.67651376 28.40922373 56.1713676 28.4014473 59.66635132 C28.39944436 61.34410668 28.40190785 63.02187344 28.40888596 64.69961548 C28.41649511 67.04354225 28.40490465 69.38660632 28.38818359 71.73046875 C28.39729263 72.7732045 28.39729263 72.7732045 28.40658569 73.83700562 C28.36936285 76.64985637 28.29336297 78.56610342 26.69448853 80.9309082 C23.81824609 82.74559573 21.28755184 82.3522377 18 82 C15.89641619 80.45737187 15.15945841 79.31891683 14 77 C11.04451536 77.45468994 9.70334126 78.22249406 7.25 80.0625 C2.94339743 82.62989769 0.94901955 82.63858317 -4 82 C-7.44485819 79.5523376 -8.70327597 76.95074568 -10 73 C-10.26069641 69.76144409 -10.26069641 69.76144409 -10.2746582 66.05419922 C-10.2823246 65.03620743 -10.2823246 65.03620743 -10.29014587 63.99765015 C-10.30398529 61.7665716 -10.30309016 59.53580371 -10.30078125 57.3046875 C-10.30466984 55.74960211 -10.30900485 54.19451778 -10.31376648 52.63943481 C-10.32121542 49.38637846 -10.320946 46.13343069 -10.31567383 42.88037109 C-10.30986523 38.70938676 -10.32684974 34.53884447 -10.3500185 30.36793327 C-10.36473559 27.15948892 -10.3656306 23.95115172 -10.36250877 20.7426796 C-10.36302249 19.20447027 -10.36826976 17.66625503 -10.37832069 16.12807846 C-10.39063604 13.98076122 -10.38392522 11.83431465 -10.37231445 9.68701172 C-10.37294388 8.4652121 -10.3735733 7.24341248 -10.3742218 5.98458862 C-10 3 -10 3 -8.69548035 1.10549927 C-5.83018045 -0.76275414 -3.30291328 -0.35388357 0 0 Z " fill="#030303" transform="translate(293,142)"></path><path d="M0 0 C1.21641174 -0.01418472 1.21641174 -0.01418472 2.45739746 -0.02865601 C3.76529236 -0.01954697 3.76529236 -0.01954697 5.09960938 -0.01025391 C6.44762634 -0.01455917 6.44762634 -0.01455917 7.82287598 -0.01895142 C9.72258128 -0.02099256 11.62230758 -0.01545919 13.52197266 -0.00292969 C16.43244347 0.01312339 19.34152558 -0.00277653 22.25195312 -0.02197266 C24.09700828 -0.01999023 25.94206257 -0.01614658 27.78710938 -0.01025391 C28.65903931 -0.0163266 29.53096924 -0.02239929 30.42932129 -0.02865601 C31.24026245 -0.01919952 32.05120361 -0.00974304 32.88671875 0 C33.5993689 0.00238678 34.31201904 0.00477356 35.04626465 0.00723267 C37.54102972 0.50820031 38.42149364 1.37522578 39.94335938 3.38818359 C40.32379554 5.98045793 40.49840481 8.2339789 40.50585938 10.82568359 C40.54839844 12.14439453 40.5909375 13.46310547 40.63476562 14.82177734 C39.94335938 18.38818359 39.94335938 18.38818359 37.10742188 20.76318359 C35.00023967 21.84539075 32.88288729 22.90802285 30.75585938 23.95068359 C26.85001762 25.94700271 25.33260744 27.22043941 23.94335938 31.38818359 C23.83876972 34.03384163 23.78927062 36.65424499 23.78564453 39.30029297 C23.78056381 40.10545853 23.77548309 40.91062408 23.77024841 41.7401886 C23.7595493 43.48842786 23.75092732 45.23668079 23.74412918 46.98493958 C23.73234452 49.75008319 23.71289436 52.51507031 23.69100952 55.28015137 C23.6293674 63.14179303 23.57528112 71.00341745 23.54199219 78.86523438 C23.52108406 83.67339353 23.48581581 88.48126547 23.44123459 93.28926086 C23.42704747 95.12328214 23.41834606 96.9573542 23.41518021 98.79142761 C23.41028866 101.35328389 23.38717831 103.91437302 23.35986328 106.47607422 C23.36286942 107.23668655 23.36587555 107.99729889 23.36897278 108.78096008 C23.28814041 113.86833586 23.28814041 113.86833586 21.63607788 116.35925293 C18.74825611 118.11463539 16.21431965 117.73864362 12.94335938 117.38818359 C11.24865723 116.34381104 11.24865723 116.34381104 9.94335938 114.38818359 C9.6492445 111.75523422 9.53658419 109.3565587 9.55859375 106.72314453 C9.55322098 105.94391129 9.54784821 105.16467804 9.54231262 104.36183167 C9.53252784 102.66927318 9.52959259 100.97666448 9.53266907 99.28408051 C9.53714421 96.60168026 9.52315398 93.91994085 9.50427246 91.23760986 C9.46745551 85.53781201 9.45378361 79.83808283 9.44335938 74.13818359 C9.43127086 67.54605138 9.40963061 60.9542398 9.36335754 54.36225128 C9.34981989 51.72605184 9.35395333 49.09026091 9.35876465 46.45404053 C9.34941837 44.82628874 9.33924813 43.1985414 9.328125 41.57080078 C9.33427322 40.84327103 9.34042145 40.11574127 9.34675598 39.36616516 C9.28583119 34.26475168 8.2660003 30.8387546 5.94335938 26.38818359 C3.66929547 24.69887898 1.50334168 23.5901103 -1.15820312 22.63037109 C-3.77010872 21.45824385 -5.23916029 20.62710865 -7.05664062 18.38818359 C-7.94100849 13.29467245 -7.92220688 8.51092266 -7.05664062 3.38818359 C-4.92775419 0.58562265 -3.47071892 0.011624 0 0 Z " fill="#020202" transform="translate(42.056640625,106.61181640625)"></path><path d="M0 0 C1.13347791 -0.00260775 2.26695582 -0.00521549 3.43478155 -0.00790226 C5.3262264 -0.00455618 5.3262264 -0.00455618 7.25588226 -0.0011425 C8.59659318 -0.00229338 9.93730377 -0.00388067 11.27801371 -0.00586975 C14.97934371 -0.01006771 18.68064814 -0.00797029 22.38197827 -0.00488353 C26.36702227 -0.00263154 30.3520617 -0.00610803 34.3371048 -0.00886345 C42.15058073 -0.0133223 49.96404708 -0.01234417 57.7775234 -0.00945081 C64.12474673 -0.00719723 70.47196736 -0.00688406 76.81919098 -0.00797462 C77.72075917 -0.00812786 78.62232736 -0.00828109 79.5512158 -0.00843897 C81.38243353 -0.00875868 83.21365127 -0.00908289 85.04486901 -0.00941156 C102.23737548 -0.01226669 119.42987663 -0.00897881 136.62238222 -0.00361119 C151.39112807 0.00085688 166.15986605 0.00008095 180.92861176 -0.00452995 C198.05739964 -0.00987514 215.18618285 -0.01199199 232.31497145 -0.00891769 C234.13965066 -0.00859912 235.96432988 -0.00828475 237.78900909 -0.00797462 C238.68690923 -0.00782035 239.58480937 -0.00766607 240.5099186 -0.00750712 C246.85336697 -0.0066418 253.1968124 -0.00810517 259.54026031 -0.01045418 C267.26527532 -0.01325176 274.99028017 -0.01251481 282.715294 -0.00717343 C286.66064967 -0.00453584 290.60598836 -0.00353232 294.55134392 -0.00682259 C298.15722571 -0.00978438 301.76307463 -0.00819471 305.36895341 -0.00284503 C307.30377513 -0.00118417 309.23859911 -0.00447945 311.17341852 -0.00790226 C312.30689643 -0.00529452 313.44037435 -0.00268677 314.60820007 0 C316.08772667 0.00024353 316.08772667 0.00024353 317.5971427 0.00049198 C319.80410004 0.12584114 319.80410004 0.12584114 320.80410004 1.12584114 C320.92910004 3.62584114 320.92910004 3.62584114 320.80410004 6.12584114 C319.1038641 7.82607708 316.93489285 7.25129931 314.60820007 7.25168228 C313.47472216 7.25429003 312.34124425 7.25689778 311.17341852 7.25958455 C309.91245529 7.25735382 308.65149205 7.2551231 307.35231781 7.25282478 C306.0116069 7.25397566 304.6708963 7.25556295 303.33018637 7.25755203 C299.62885636 7.26174999 295.92755193 7.25965257 292.2262218 7.25656581 C288.24117781 7.25431382 284.25613838 7.25779031 280.27109528 7.26054573 C272.45761934 7.26500458 264.64415299 7.26402645 256.83067667 7.26113309 C250.48345334 7.25887951 244.13623271 7.25856634 237.78900909 7.25965691 C236.8874409 7.25981014 235.98587271 7.25996337 235.05698428 7.26012125 C233.22576654 7.26044096 231.3945488 7.26076517 229.56333107 7.26109384 C212.3708246 7.26394897 195.17832345 7.26066109 177.98581785 7.25529347 C163.21707201 7.25082541 148.44833402 7.25160133 133.67958832 7.25621223 C116.55080044 7.26155742 99.42201723 7.26367428 82.29322863 7.26059997 C80.46854941 7.2602814 78.6438702 7.25996703 76.81919098 7.25965691 C75.92129084 7.25950263 75.0233907 7.25934836 74.09828147 7.2591894 C67.7548331 7.25832408 61.41138768 7.25978746 55.06793976 7.26213646 C47.34292475 7.26493404 39.61791991 7.26419709 31.89290607 7.25885572 C27.9475504 7.25621813 24.00221172 7.2552146 20.05685616 7.25850487 C16.45097437 7.26146666 12.84512544 7.25987699 9.23924667 7.25452732 C7.30442494 7.25286645 5.36960096 7.25616173 3.43478155 7.25958455 C2.30130364 7.2569768 1.16782573 7.25436905 0 7.25168228 C-1.4795266 7.25143875 -1.4795266 7.25143875 -2.98894262 7.2511903 C-5.19589996 7.12584114 -5.19589996 7.12584114 -6.19589996 6.12584114 C-6.32089996 3.62584114 -6.32089996 3.62584114 -6.19589996 1.12584114 C-4.49566403 -0.57439479 -2.32669277 0.00038297 0 0 Z " fill="#E4000F" transform="translate(42.195899963378906,245.87415885925293)"></path><path d="M0 0 C6.88707543 4.64128996 8.94184907 11.13958712 10.875 18.9375 C11.05804688 19.53304687 11.24109375 20.12859375 11.4296875 20.7421875 C12.1114855 24.10333203 12.18148889 27.45878674 12.25 30.875 C12.30607422 31.92977539 12.30607422 31.92977539 12.36328125 33.00585938 C12.42762353 36.81992679 12.00074446 38.75810142 9.796875 41.90234375 C6.21231943 44.39907296 4.08345166 44.5348984 -0.25 44.5625 C-4.94660826 44.41649414 -4.94660826 44.41649414 -8.9921875 46.3359375 C-12.12058794 50.75884846 -11.65163629 55.70875397 -11.125 60.9375 C-9.83402492 64.28770768 -9.83402492 64.28770768 -7.125 65.9375 C-2.26305457 65.9375 0.11925359 64.78668693 3.875 61.9375 C6.87888632 62.20254879 7.70804275 62.77054275 9.875 64.9375 C10.71476838 69.97611029 9.12774599 73.11786588 6.34765625 77.16796875 C3.54562636 80.53486408 0.7922751 81.59593502 -3.44921875 82.3515625 C-8.38530481 82.75975338 -11.53278987 82.19217315 -15.4375 79.0625 C-19.5577857 74.96718573 -21.91890398 70.25607259 -24.125 64.9375 C-24.65480469 63.79667969 -24.65480469 63.79667969 -25.1953125 62.6328125 C-30.04165492 48.58249203 -29.09627336 28.6493364 -23.61328125 14.98046875 C-18.62168478 4.77455365 -12.70708697 -4.32040957 0 0 Z " fill="#040404" transform="translate(200.125,142.0625)"></path><path d="M0 0 C1.68676758 1.17700195 1.68676758 1.17700195 3 3 C3.43237305 5.54370117 3.43237305 5.54370117 3.51171875 8.54296875 C3.56489258 10.15268555 3.56489258 10.15268555 3.61914062 11.79492188 C3.64169922 12.91447266 3.66425781 14.03402344 3.6875 15.1875 C3.73874023 16.88422852 3.73874023 16.88422852 3.79101562 18.61523438 C3.87356314 21.4100574 3.94269182 24.20456398 4 27 C5.11375 27.45375 6.2275 27.9075 7.375 28.375 C11 30 11 30 13 32 C13.46784692 35.5868264 13.51294839 37.31606881 11.3125 40.25 C8.93879867 42.04631452 6.76790938 42.9534273 4 44 C3.92568433 50.15638608 3.87131916 56.31250935 3.83520508 62.46923828 C3.82014531 64.56238353 3.79969329 66.65549736 3.77368164 68.74853516 C3.73717499 71.76212328 3.72024527 74.77529312 3.70703125 77.7890625 C3.69154739 78.72054108 3.67606354 79.65201965 3.66011047 80.61172485 C3.65876512 85.83929864 4.05457012 89.48444867 7 94 C8.98936929 95.72383008 8.98936929 95.72383008 11.1875 97 C14.90820261 99.61751086 14.90820261 99.61751086 15.75 103.125 C14.79386561 106.79018185 14.25229621 107.98667378 11 110 C6.09235172 110.82354372 2.17853381 110.5237928 -2.375 108.5 C-7.0826742 104.01650076 -9.78466996 98.13167807 -10.12457275 91.60974121 C-10.12503601 90.72467896 -10.12549927 89.8396167 -10.12597656 88.92773438 C-10.13168671 87.41596619 -10.13168671 87.41596619 -10.13751221 85.87365723 C-10.13853943 84.79128784 -10.13956665 83.70891846 -10.140625 82.59375 C-10.15894402 80.30077124 -10.17851348 78.0078022 -10.19921875 75.71484375 C-10.22825356 72.10025535 -10.25000184 68.4862949 -10.25048828 64.87158203 C-10.25381341 61.3825713 -10.2882984 57.89500994 -10.328125 54.40625 C-10.3210553 53.32388062 -10.3139856 52.24151123 -10.30670166 51.12634277 C-10.22718419 45.18345947 -10.22718419 45.18345947 -13.46777344 40.50195312 C-14.72122559 39.75848633 -14.72122559 39.75848633 -16 39 C-17.1875 35.5625 -17.1875 35.5625 -17 32 C-15.53046875 31.02740234 -15.53046875 31.02740234 -14.03125 30.03515625 C-11.69752266 28.22118082 -11.070179 27.33807172 -10.46020508 24.3996582 C-10.29272746 21.21399288 -10.26531491 18.06471211 -10.3125 14.875 C-10.32142173 12.705744 -10.31808166 10.53639286 -10.30078125 8.3671875 C-10.31878784 6.93028564 -10.31878784 6.93028564 -10.3371582 5.46435547 C-10 3 -10 3 -8.69995117 1.18798828 C-5.85729583 -0.79856362 -3.34125054 -0.35799113 0 0 Z " fill="#020202" transform="translate(344,114)"></path><path d="M0 0 C131.01 0 262.02 0 397 0 C397 0.99 397 1.98 397 3 C266.65 3 136.3 3 2 3 C2 86.82 2 170.64 2 257 C132.35 257 262.7 257 397 257 C397 257.33 397 257.66 397 258 C265.99 258.33 134.98 258.66 0 259 C0 173.53 0 88.06 0 0 Z " fill="#D20511" transform="translate(0,69)"></path><path d="M0 0 C0.88464432 -0.01606293 1.76928864 -0.03212585 2.68074036 -0.04867554 C6.72839607 -0.09312606 10.77588777 -0.13419031 14.82373047 -0.15722656 C16.95860697 -0.17378732 19.09342801 -0.20107878 21.22802734 -0.23925781 C24.30554985 -0.29402224 27.38177265 -0.31590003 30.4597168 -0.33056641 C31.41195633 -0.35323578 32.36419586 -0.37590515 33.34529114 -0.39926147 C37.89634393 -0.38475453 40.0500305 -0.29554856 43.8190918 2.44628906 C46.69354643 6.59639361 46.49541558 9.78230913 46.40893555 14.69287109 C46.43665039 15.53462891 46.46436523 16.37638672 46.49291992 17.24365234 C46.46945533 23.20365975 46.46945533 23.20365975 44.48876953 25.82299805 C41.76352929 28.16996061 38.6845234 29.92384756 35.40893555 31.38037109 C32.43387961 32.59795466 32.43387961 32.59795466 30.72143555 35.19287109 C30.61471906 37.75439711 30.56728085 40.28987979 30.5637207 42.85205078 C30.55863998 43.64249786 30.55355927 44.43294495 30.54832458 45.24734497 C30.53761037 46.96722041 30.52899433 48.68710989 30.52220535 50.40700531 C30.51042826 53.13088793 30.49097734 55.85461115 30.46908569 58.57843018 C30.40743794 66.32420531 30.35346304 74.0699655 30.32006836 81.81591797 C30.29910033 86.55161642 30.26377651 91.28702659 30.21931076 96.02256012 C30.20516368 97.82619071 30.19643124 99.62987233 30.19325638 101.4335556 C30.18833706 103.96138055 30.16515216 106.48844364 30.13793945 109.01611328 C30.14094559 109.7581601 30.14395172 110.50020691 30.14704895 111.26473999 C30.07202482 115.96731915 29.19368921 119.19269074 26.72143555 123.19287109 C23.24541565 126.17231672 20.10111397 126.7291502 15.65112305 126.54443359 C12.47928254 125.96656792 10.86642862 124.52712826 8.72143555 122.19287109 C6.49585281 117.92150766 6.4340278 113.85762137 6.45019531 109.14550781 C6.44496857 108.34980377 6.43974182 107.55409973 6.43435669 106.73428345 C6.42414276 105.01282592 6.41834084 103.29133774 6.4164753 101.56985092 C6.41280667 98.84647989 6.39606872 96.12347135 6.37571716 93.400177 C6.3203367 85.6597567 6.28955595 77.91928437 6.26513672 70.17871094 C6.24928621 65.43958716 6.21910045 60.70072386 6.18037224 55.96173477 C6.16870681 54.15561811 6.16279175 52.34945496 6.16269112 50.54330063 C6.16249963 48.0224041 6.14427775 45.50222995 6.12207031 42.98144531 C6.12664749 42.23332581 6.13122467 41.4852063 6.13594055 40.7144165 C6.09844006 36.72713096 6.09844006 36.72713096 4.31309509 33.26589966 C1.9566324 31.67727363 -0.53127048 30.64027034 -3.14575195 29.54833984 C-6.21264473 27.59923399 -8.48455885 25.33194631 -10.27856445 22.19287109 C-10.75052128 19.25853084 -10.94125842 17.03058024 -10.84106445 14.13037109 C-10.85202148 13.43621094 -10.86297852 12.74205078 -10.87426758 12.02685547 C-10.80485227 7.1539011 -9.7258989 4.60154385 -6.27856445 1.19287109 C-3.96594742 0.03656258 -2.57544344 0.04246872 0 0 Z M-5.27856445 7.19287109 C-6.14413071 12.31561016 -6.16293232 17.09935995 -5.27856445 22.19287109 C-3.03392485 24.95800683 -0.58347171 26.00113874 2.72143555 27.19287109 C6.89461088 29.23309015 8.35229406 30.85711836 10.10490417 35.18753815 C11.13774026 38.54694584 11.13559262 41.897548 11.10620117 45.37548828 C11.11157394 46.1617308 11.11694672 46.94797333 11.1224823 47.75804138 C11.13221287 49.45272119 11.13521883 51.14745054 11.13212585 52.84215546 C11.12762848 55.52377467 11.14169907 58.20474081 11.16052246 60.8862915 C11.20343135 67.53961979 11.21457749 74.19293205 11.22674561 80.84637451 C11.23826057 86.48241403 11.26176493 92.11815269 11.30143738 97.75406647 C11.31503053 100.39710527 11.31083435 103.03974012 11.30603027 105.68280029 C11.31536677 107.29781618 11.32553455 108.91282755 11.33666992 110.52783203 C11.3305217 111.26345871 11.32437347 111.99908539 11.31803894 112.75700378 C11.35321914 115.65437092 11.39230828 117.69976501 13.0267334 120.14849854 C15.91113191 121.92603016 18.44346934 121.54408176 21.72143555 121.19287109 C23.56985904 120.23288558 23.56985904 120.23288558 24.72143555 118.19287109 C25.01558214 115.49017993 25.1281431 113.01577731 25.10620117 110.3125 C25.11157394 109.51054703 25.11694672 108.70859406 25.1224823 107.88233948 C25.13226716 106.14066605 25.13520231 104.39894383 25.13212585 102.65724564 C25.12765369 99.89978986 25.14163135 97.14297789 25.16052246 94.3855896 C25.19734047 88.52969402 25.21101755 82.67386539 25.22143555 76.81787109 C25.23351128 70.03894585 25.25505845 63.26033317 25.30143738 56.48154831 C25.31501223 53.76659646 25.31083542 51.05203916 25.30603027 48.33706665 C25.31537218 46.66871641 25.32554133 45.00037053 25.33666992 43.33203125 C25.3305217 42.57860947 25.32437347 41.82518768 25.31803894 41.04893494 C25.3703435 36.5795442 26.01242516 33.77130548 28.72143555 30.19287109 C31.72561346 27.41122488 35.35099376 25.81360204 39.0144043 24.06005859 C40.70593025 23.31176384 40.70593025 23.31176384 41.72143555 22.19287109 C41.87492691 19.71929872 41.9530344 17.2928259 41.97143555 14.81787109 C41.99206055 14.13208984 42.01268555 13.44630859 42.03393555 12.73974609 C42.12092427 8.86639471 42.12092427 8.86639471 40.45446777 5.49594116 C38.34724068 3.9115133 37.27966107 3.81344511 34.66479492 3.8046875 C33.85385376 3.79523102 33.0429126 3.78577454 32.20739746 3.77603149 C30.89950256 3.78514053 30.89950256 3.78514053 29.56518555 3.79443359 C28.66650757 3.79156342 27.76782959 3.78869324 26.84191895 3.78573608 C24.94221364 3.78369494 23.04248735 3.78922831 21.14282227 3.80175781 C18.23235145 3.81781089 15.32326934 3.80191097 12.4128418 3.78271484 C10.56778664 3.78469727 8.72273236 3.78854092 6.87768555 3.79443359 C6.00575562 3.7883609 5.13382568 3.78228821 4.23547363 3.77603149 C3.01906189 3.79021622 3.01906189 3.79021622 1.77807617 3.8046875 C1.06542603 3.80707428 0.35277588 3.80946106 -0.38146973 3.81192017 C-2.87510732 4.3126614 -3.75309568 5.18467604 -5.27856445 7.19287109 Z " fill="#EAEAEA" transform="translate(40.278564453125,102.80712890625)"></path><path d="M0 0 C2.98880047 1.22617455 3.73285355 2.27634932 5.4375 5 C8.68258421 14.7394747 8.88291391 24.62877556 8.77368164 34.77783203 C8.7499538 37.12957882 8.75316621 39.48019362 8.75976562 41.83203125 C8.71371854 66.2682729 8.71371854 66.2682729 3.4375 73 C-0.25 73.875 -0.25 73.875 -3.5625 74 C-10.00418647 64.11779053 -10.05038787 52.41643234 -9.95361328 40.99951172 C-9.9376144 38.76597093 -9.95350789 36.53426559 -9.97265625 34.30078125 C-9.98546471 26.65056068 -9.51909422 19.19721801 -8.2890625 11.640625 C-8.18121429 10.93194275 -8.07336609 10.2232605 -7.96224976 9.49310303 C-7.07193075 4.60989442 -5.58769094 0 0 0 Z " fill="#ECECEC" transform="translate(251.5625,130)"></path><path d="M0 0 C1.0209375 0.01546875 1.0209375 0.01546875 2.0625 0.03125 C2.743125 0.0209375 3.42375 0.010625 4.125 0 C6.96873594 0.77973405 7.59019602 1.99644969 9.0625 4.53125 C9.44345093 7.79467773 9.44345093 7.79467773 9.45068359 11.71484375 C9.45594055 12.43076691 9.46119751 13.14669006 9.46661377 13.88430786 C9.47979564 16.24601184 9.47108255 18.6070394 9.4609375 20.96875 C9.46295877 22.61255014 9.46587065 24.25634941 9.46963501 25.90014648 C9.47405589 29.34334866 9.46763502 32.78631719 9.45361328 36.22949219 C9.43652138 40.6414398 9.44636385 45.05283992 9.46433067 49.46476746 C9.47517497 52.85856242 9.47171924 56.25222773 9.4639473 59.64602661 C9.46194707 61.27271591 9.46439835 62.89941701 9.47138596 64.52609253 C9.47901124 66.80026395 9.46738214 69.07355067 9.45068359 71.34765625 C9.44829681 72.64131104 9.44591003 73.93496582 9.44345093 75.26782227 C9.04177499 78.70879143 8.49605994 80.11689809 6.0625 82.53125 C4.125 83.0625 4.125 83.0625 2.0625 83.03125 C1.0415625 83.04671875 1.0415625 83.04671875 0 83.0625 C-2.84373594 82.28276595 -3.46519602 81.06605031 -4.9375 78.53125 C-5.31845093 75.26782227 -5.31845093 75.26782227 -5.32568359 71.34765625 C-5.33094055 70.63173309 -5.33619751 69.91580994 -5.34161377 69.17819214 C-5.35479564 66.81648816 -5.34608255 64.4554606 -5.3359375 62.09375 C-5.33795877 60.44994986 -5.34087065 58.80615059 -5.34463501 57.16235352 C-5.34905589 53.71915134 -5.34263502 50.27618281 -5.32861328 46.83300781 C-5.31152138 42.4210602 -5.32136385 38.00966008 -5.33933067 33.59773254 C-5.35017497 30.20393758 -5.34671924 26.81027227 -5.3389473 23.41647339 C-5.33694707 21.78978409 -5.33939835 20.16308299 -5.34638596 18.53640747 C-5.35401124 16.26223605 -5.34238214 13.98894933 -5.32568359 11.71484375 C-5.32329681 10.42118896 -5.32091003 9.12753418 -5.31845093 7.79467773 C-4.86844136 3.93965707 -3.98516386 1.09270622 0 0 Z " fill="#040405" transform="translate(81.9375,141.46875)"></path><path d="M0 0 C3.18459646 1.51992104 5.73579966 3.28295959 8 6 C9.17094355 9.51283065 9.14863443 12.31428182 9.17700195 16.02246094 C9.18357315 16.73341919 9.19014435 17.44437744 9.19691467 18.17687988 C9.21662181 20.52937938 9.22830525 22.88181507 9.23828125 25.234375 C9.24235678 26.03929634 9.2464323 26.84421768 9.25063133 27.67353058 C9.27148235 31.93502037 9.28578751 36.19647806 9.29516602 40.45800781 C9.3062207 44.85067133 9.34061212 49.24282692 9.38033772 53.63531113 C9.40653559 57.02061885 9.4148607 60.40580619 9.41844749 63.79120636 C9.4233063 65.40986812 9.43490016 67.02852475 9.45348549 68.6470871 C9.47794283 70.91844939 9.47690053 73.18850615 9.4699707 75.45996094 C9.47877007 77.39497467 9.47877007 77.39497467 9.48774719 79.36907959 C8.83903367 84.1982764 7.12869274 88.25143096 3.25 91.4375 C-0.95737074 92.48934269 -4.96799331 93.17550494 -8.81640625 90.94921875 C-10.98949346 89.1740945 -12.73685603 87.52628794 -14 85 C-14.11875989 82.56051215 -14.17828378 80.14864058 -14.19287109 77.70800781 C-14.20513733 76.58085861 -14.20513733 76.58085861 -14.21765137 75.43093872 C-14.24251034 72.93834227 -14.25902385 70.44580285 -14.2734375 67.953125 C-14.27876118 67.10190819 -14.28408485 66.25069138 -14.28956985 65.37368011 C-14.31630545 60.86696777 -14.33567777 56.36028316 -14.35009766 51.85351562 C-14.36673383 47.20167611 -14.41150127 42.55054667 -14.4624691 37.89897537 C-14.49615285 34.31983644 -14.50767636 30.74086569 -14.51332474 27.16158295 C-14.52003566 25.44717745 -14.53525371 23.73278297 -14.55921555 22.0185318 C-14.59089183 19.61495958 -14.59090092 17.21329709 -14.58349609 14.80957031 C-14.59990143 14.10492645 -14.61630676 13.40028259 -14.63320923 12.67428589 C-14.56278545 7.07269699 -12.81774413 4.79690477 -9 1 C-5.93570224 -0.53214888 -3.3834358 -0.22938548 0 0 Z M-10 9 C-10.45569538 12.3647863 -10.45569538 12.3647863 -10.38818359 16.18359375 C-10.39344055 16.89951691 -10.39869751 17.61544006 -10.40411377 18.35305786 C-10.41729564 20.71476184 -10.40858255 23.0757894 -10.3984375 25.4375 C-10.40045877 27.08130014 -10.40337065 28.72509941 -10.40713501 30.36889648 C-10.41155589 33.81209866 -10.40513502 37.25506719 -10.39111328 40.69824219 C-10.37402138 45.1101898 -10.38386385 49.52158992 -10.40183067 53.93351746 C-10.41267497 57.32731242 -10.40921924 60.72097773 -10.4014473 64.11477661 C-10.39944707 65.74146591 -10.40189835 67.36816701 -10.40888596 68.99484253 C-10.41651124 71.26901395 -10.40488214 73.54230067 -10.38818359 75.81640625 C-10.38579681 77.11006104 -10.38341003 78.40371582 -10.38095093 79.73657227 C-9.97927499 83.17754143 -9.43355994 84.58564809 -7 87 C-5.06574514 87.62723208 -5.06574514 87.62723208 -3 87.5 C-2.319375 87.5103125 -1.63875 87.520625 -0.9375 87.53125 C1.90623594 86.75151595 2.52769602 85.53480031 4 83 C4.45569538 79.6352137 4.45569538 79.6352137 4.38818359 75.81640625 C4.39344055 75.10048309 4.39869751 74.38455994 4.40411377 73.64694214 C4.41729564 71.28523816 4.40858255 68.9242106 4.3984375 66.5625 C4.40045877 64.91869986 4.40337065 63.27490059 4.40713501 61.63110352 C4.41155589 58.18790134 4.40513502 54.74493281 4.39111328 51.30175781 C4.37402138 46.8898102 4.38386385 42.47841008 4.40183067 38.06648254 C4.41267497 34.67268758 4.40921924 31.27902227 4.4014473 27.88522339 C4.39944707 26.25853409 4.40189835 24.63183299 4.40888596 23.00515747 C4.41651124 20.73098605 4.40488214 18.45769933 4.38818359 16.18359375 C4.38579681 14.88993896 4.38341003 13.59628418 4.38095093 12.26342773 C3.97927499 8.82245857 3.43355994 7.41435191 1 5 C-0.93425486 4.37276792 -0.93425486 4.37276792 -3 4.5 C-4.0209375 4.48453125 -4.0209375 4.48453125 -5.0625 4.46875 C-7.90623594 5.24848405 -8.52769602 6.46519969 -10 9 Z " fill="#F0F0EF" transform="translate(87,137)"></path><path d="M0 0 C0.98689314 0.00037972 1.97378628 0.00075944 2.99058527 0.00115067 C4.69172718 -0.00183591 4.69172718 -0.00183591 6.4272356 -0.00488281 C8.31970364 -0.00051355 8.31970364 -0.00051355 10.25040334 0.00394398 C11.59182673 0.00350839 12.93325002 0.00263372 14.27467287 0.00135481 C17.97793577 -0.00089266 21.68117003 0.00313456 25.38442928 0.00813287 C29.37149736 0.01243359 33.3585637 0.01099122 37.34563345 0.0102306 C44.25919188 0.00970512 51.17274091 0.01285439 58.08629698 0.01846844 C68.08225573 0.02658025 78.07820991 0.02919833 88.0741716 0.03045643 C104.29022095 0.03264745 120.50626529 0.0393089 136.72231191 0.04875904 C152.47882207 0.05793186 168.23533087 0.06501333 183.99184316 0.06926686 C184.962354 0.06952958 185.93286484 0.0697923 186.9327851 0.07006299 C191.80133762 0.07136798 196.66989014 0.0726317 201.53844267 0.07387489 C241.9562626 0.08424907 282.37407701 0.10186875 322.79189199 0.1241985 C322.79189199 0.7841985 322.79189199 1.4441985 322.79189199 2.1241985 C216.20189199 2.4541985 109.61189199 2.7841985 -0.20810801 3.1241985 C-0.53810801 4.1141985 -0.86810801 5.1041985 -1.20810801 6.1241985 C-1.86810801 6.1241985 -2.52810801 6.1241985 -3.20810801 6.1241985 C-3.25082901 4.45807944 -3.24874633 2.79036965 -3.20810801 1.1241985 C-2.20810801 0.1241985 -2.20810801 0.1241985 0 0 Z " fill="#CF0710" transform="translate(39.20810800790787,245.8758015036583)"></path><path d="M0 0 C0.66 0 1.32 0 2 0 C5.22944632 9.68467331 5.43412867 18.93476555 5.33618164 29.01855469 C5.31247941 31.62726599 5.31565551 34.23495729 5.32226562 36.84375 C5.30601926 46.24535223 4.99905807 55.00282578 2 64 C1.34 64 0.68 64 0 64 C-3.26762943 54.23432845 -3.46426782 44.83817044 -3.39111328 34.6640625 C-3.37502835 32.00468661 -3.39103496 29.34682996 -3.41015625 26.6875 C-3.41991104 17.39573513 -2.98147716 8.91047387 0 0 Z " fill="#090909" transform="translate(250,135)"></path><path d="M0 0 C3.63 0 7.26 0 11 0 C14 3 14 3 14.2578125 5.4453125 C14.21398437 6.32960938 14.17015625 7.21390625 14.125 8.125 C14.05439131 9.74899985 14.00582625 11.37447634 14 13 C14.33 13.33 14.66 13.66 15 14 C15.34683394 17.67643975 15.45864266 20.14823505 13.6875 23.4375 C11 25 11 25 0 25 C0 16.75 0 8.5 0 0 Z " fill="#E6E6E6" transform="translate(109,270)"></path><path d="M0 0 C3.62104732 0.67894637 4.77392866 1.67685197 7 4.5625 C8.92809904 10.34679711 8.77786652 16.51176099 6.625 22.1875 C5 24.5625 5 24.5625 3 25.5625 C-2.36899365 26.01943563 -2.36899365 26.01943563 -4.8125 24.25 C-7.36450349 20.62346872 -7.2262333 16.98267369 -7.3125 12.6875 C-7.34988281 11.47320312 -7.38726562 10.25890625 -7.42578125 9.0078125 C-6.81094865 4.03274503 -5.08053755 0.95260079 0 0 Z " fill="#EBEBEB" transform="translate(195,269.4375)"></path><path d="M0 0 C1.65 0 3.3 0 5 0 C5 3.3 5 6.6 5 10 C5.99 10 6.98 10 8 10 C8 7.03 8 4.06 8 1 C9.65 1 11.3 1 13 1 C13 8.92 13 16.84 13 25 C11.35 25 9.7 25 8 25 C8 21.37 8 17.74 8 14 C7.01 14 6.02 14 5 14 C5 17.63 5 21.26 5 25 C3.35 25 1.7 25 0 25 C0 16.75 0 8.5 0 0 Z " fill="#EDEDED" transform="translate(249,270)"></path><path d="M0 0 C1.65 0 3.3 0 5 0 C5 3.3 5 6.6 5 10 C5.99 10 6.98 10 8 10 C8 6.7 8 3.4 8 0 C9.65 0 11.3 0 13 0 C13 7.92 13 15.84 13 24 C11.68 24 10.36 24 9 24 C9 20.7 9 17.4 9 14 C7.68 14 6.36 14 5 14 C5 17.63 5 21.26 5 25 C3.35 25 1.7 25 0 25 C0 16.75 0 8.5 0 0 Z " fill="#F0EFEF" transform="translate(63,270)"></path><path d="M0 0 C3.375 1.125 3.375 1.125 5.3125 3.4375 C6.375 6.125 6.375 6.125 6.375 10.125 C4.725 10.125 3.075 10.125 1.375 10.125 C1.045 8.805 0.715 7.485 0.375 6.125 C-0.615 6.125 -1.605 6.125 -2.625 6.125 C-2.625 10.415 -2.625 14.705 -2.625 19.125 C-1.635 19.125 -0.645 19.125 0.375 19.125 C0.705 18.135 1.035 17.145 1.375 16.125 C2.695 16.125 4.015 16.125 5.375 16.125 C5.0625 19.5 5.0625 19.5 4.375 23.125 C0.90576119 25.43782587 -0.54705575 25.54978586 -4.625 25.125 C-7.18449546 23.27157225 -7.60418798 22.18743607 -8.625 19.125 C-9.62494509 7.49706706 -9.62494509 7.49706706 -7.75390625 3.05859375 C-5.39026231 0.33846581 -3.52022384 0.12138703 0 0 Z " fill="#ECECEC" transform="translate(303.625,269.875)"></path><path d="M0 0 C0.66 1.65 1.32 3.3 2 5 C-0.60582371 5.93065133 -1.64198224 6.14917407 -4.25 5.0625 C-5.11625 4.5365625 -5.11625 4.5365625 -6 4 C-5.96044102 5.92309422 -5.96044102 5.92309422 -5 8 C-2.04990627 9.72512465 -2.04990627 9.72512465 1 11 C2.57897833 12.57897833 2.24543509 14.19362572 2.3125 16.375 C2.25087968 20.68157579 2.25087968 20.68157579 0.375 23.0625 C-2.70053186 24.27652573 -4.71939399 24.47842171 -8 24 C-10.375 22.1875 -10.375 22.1875 -12 20 C-12 19.01 -12 18.02 -12 17 C-10.68 16.67 -9.36 16.34 -8 16 C-7.67 16.99 -7.34 17.98 -7 19 C-5.68 18.67 -4.36 18.34 -3 18 C-4.3363414 13.99097581 -6.49427032 13.19108105 -10 11 C-11 10 -11 10 -11.3125 6.6875 C-11 3 -11 3 -9.4375 0.5 C-6.01717697 -1.60481417 -3.80835623 -0.87885144 0 0 Z " fill="#EBEBEB" transform="translate(154,271)"></path><path d="M0 0 C4.29 0 8.58 0 13 0 C13 1.32 13 2.64 13 4 C10.36 4 7.72 4 5 4 C5 6.31 5 8.62 5 11 C6.98 11 8.96 11 11 11 C11 11.99 11 12.98 11 14 C9.02 14 7.04 14 5 14 C5 16.31 5 18.62 5 21 C7.64 21 10.28 21 13 21 C13 22.32 13 23.64 13 25 C8.71 25 4.42 25 0 25 C0 16.75 0 8.5 0 0 Z " fill="#E7E7E7" transform="translate(266,270)"></path><path d="M0 0 C4.29 0 8.58 0 13 0 C13 1.32 13 2.64 13 4 C10.36 4 7.72 4 5 4 C5 6.31 5 8.62 5 11 C6.98 11 8.96 11 11 11 C11 11.99 11 12.98 11 14 C9.02 14 7.04 14 5 14 C5 16.31 5 18.62 5 21 C7.64 21 10.28 21 13 21 C13 22.32 13 23.64 13 25 C8.71 25 4.42 25 0 25 C0 16.75 0 8.5 0 0 Z " fill="#E6E6E6" transform="translate(127,270)"></path><path d="M0 0 C3.96 0 7.92 0 12 0 C12 0.99 12 1.98 12 3 C9.69 3 7.38 3 5 3 C5 4.98 5 6.96 5 9 C6.65 9 8.3 9 10 9 C10.33 10.65 10.66 12.3 11 14 C9.02 14 7.04 14 5 14 C5 15.65 5 17.3 5 19 C7.31 19 9.62 19 12 19 C12 20.32 12 21.64 12 23 C8.04 23 4.08 23 0 23 C0 15.41 0 7.82 0 0 Z " fill="#EBEBEB" transform="translate(81,271)"></path><path d="M0 0 C3.96 0 7.92 0 12 0 C12 1.65 12 3.3 12 5 C9.69 5 7.38 5 5 5 C5 6.98 5 8.96 5 11 C6.65 11 8.3 11 10 11 C10 12.32 10 13.64 10 15 C8.35 15 6.7 15 5 15 C5 18.3 5 21.6 5 25 C3.35 25 1.7 25 0 25 C0 16.75 0 8.5 0 0 Z " fill="#E7E7E7" transform="translate(207,270)"></path><path d="M0 0 C1.98 0 3.96 0 6 0 C6.66 1.65 7.32 3.3 8 5 C8.66 3.35 9.32 1.7 10 0 C11.32 0 12.64 0 14 0 C13.5900395 2.93805023 13.19555607 5.55388771 12 8.28125 C10.81068933 11.51468838 10.58309818 14.37888003 10.375 17.8125 C10.30023438 18.97394531 10.22546875 20.13539063 10.1484375 21.33203125 C10.09945313 22.21246094 10.05046875 23.09289062 10 24 C8.02 24 6.04 24 4 24 C3.96261719 23.10539062 3.92523438 22.21078125 3.88671875 21.2890625 C3.47812683 13.77417573 2.5931083 7.07804405 0 0 Z " fill="#E2E2E2" transform="translate(337,271)"></path><path d="M0 0 C4.29 0 8.58 0 13 0 C13 1.32 13 2.64 13 4 C11.68 4 10.36 4 9 4 C9 10.6 9 17.2 9 24 C7.02 24 5.04 24 3 24 C3 17.4 3 10.8 3 4 C2.01 4 1.02 4 0 4 C0 2.68 0 1.36 0 0 Z " fill="#DADADA" transform="translate(233,271)"></path><path d="M0 0 C4.29 0 8.58 0 13 0 C13 1.65 13 3.3 13 5 C11.68 5 10.36 5 9 5 C9 11.6 9 18.2 9 25 C7.35 25 5.7 25 4 25 C4 18.4 4 11.8 4 5 C2.68 5 1.36 5 0 5 C0 3.35 0 1.7 0 0 Z " fill="#E6E5E5" transform="translate(321,270)"></path><path d="M0 0 C4.29 0 8.58 0 13 0 C13 1.65 13 3.3 13 5 C11.68 5 10.36 5 9 5 C9 11.6 9 18.2 9 25 C7.35 25 5.7 25 4 25 C4 18.4 4 11.8 4 5 C2.68 5 1.36 5 0 5 C0 3.35 0 1.7 0 0 Z " fill="#E6E6E6" transform="translate(159,270)"></path><path d="M0 0 C4.29 0 8.58 0 13 0 C13 1.65 13 3.3 13 5 C11.68 5 10.36 5 9 5 C9 11.6 9 18.2 9 25 C7.35 25 5.7 25 4 25 C4 18.4 4 11.8 4 5 C2.68 5 1.36 5 0 5 C0 3.35 0 1.7 0 0 Z " fill="#E5E5E5" transform="translate(46,270)"></path><path d="M0 0 C1.65 0 3.3 0 5 0 C5 8.25 5 16.5 5 25 C3.02 25 1.04 25 -1 25 C-1.02886984 21.02084841 -1.04675406 17.04172347 -1.0625 13.0625 C-1.07087891 11.92619141 -1.07925781 10.78988281 -1.08789062 9.61914062 C-1.09111328 8.53955078 -1.09433594 7.45996094 -1.09765625 6.34765625 C-1.10289307 5.34742432 -1.10812988 4.34719238 -1.11352539 3.31665039 C-1 1 -1 1 0 0 Z " fill="#CECECE" transform="translate(313,270)"></path><path d="M0 0 C2.97454134 0.32157204 4.59335278 0.62139742 6.8125 2.6875 C8.36382423 5.70849983 8.41972691 7.64218474 8 11 C6.875 13.375 6.875 13.375 5 15 C1.9375 15.4375 1.9375 15.4375 -1 15 C-3.45416273 11.3187559 -3.59384154 8.27738037 -3 4 C-1.5 1.5 -1.5 1.5 0 0 Z " fill="#DFDFDF" transform="translate(191,157)"></path><path d="M0 0 C0.99 0 1.98 0 3 0 C3 4.95 3 9.9 3 15 C1.68 14.67 0.36 14.34 -1 14 C-1.02685938 11.85423363 -1.04633088 9.70837355 -1.0625 7.5625 C-1.07410156 6.36753906 -1.08570313 5.17257812 -1.09765625 3.94140625 C-1 1 -1 1 0 0 Z " fill="#080808" transform="translate(194,275)"></path><path d="M0 0 C2.475 0.495 2.475 0.495 5 1 C5 2.65 5 4.3 5 6 C3.35 6.33 1.7 6.66 0 7 C0 4.69 0 2.38 0 0 Z " fill="#2D2D2D" transform="translate(114,284)"></path><path d="M0 0 C2.475 0.495 2.475 0.495 5 1 C4.67 2.32 4.34 3.64 4 5 C2.68 5 1.36 5 0 5 C0 3.35 0 1.7 0 0 Z " fill="#1F1F1F" transform="translate(114,275)"></path><path d="M0 0 C0.33 0 0.66 0 1 0 C1 3.63 1 7.26 1 11 C0.01 10.67 -0.98 10.34 -2 10 C-1.34 6.7 -0.68 3.4 0 0 Z " fill="#2E2E2E" transform="translate(277,198)"></path></svg>